{"glyphs":{"0":{"ha":864,"x_min":35,"x_max":837,"o":"m 523 920 q 607 897 568 913 q 679 855 646 880 q 736 799 711 830 q 781 731 762 767 q 804 674 793 705 q 822 612 814 644 q 833 548 829 581 q 837 484 837 515 q 831 396 837 439 q 809 302 825 352 q 766 203 793 252 q 703 110 739 155 q 620 31 666 65 q 519 -24 574 -3 q 401 -44 464 -44 q 341 -39 370 -44 q 282 -26 313 -35 q 168 39 215 -5 q 91 142 121 83 q 48 268 62 200 q 35 401 35 335 q 39 470 35 435 q 49 534 43 505 q 79 629 59 582 q 126 720 98 677 q 191 800 155 763 q 269 865 227 838 q 361 908 312 892 q 466 924 411 924 q 495 923 481 924 q 523 920 509 922 m 813 398 q 819 483 819 439 q 806 608 819 547 q 765 722 793 669 q 668 841 730 792 q 521 903 606 889 q 493 905 507 905 q 466 906 479 906 q 319 873 385 906 q 200 787 252 840 q 153 731 174 762 q 114 667 131 701 q 84 599 96 634 q 65 530 72 564 q 56 468 59 500 q 53 404 53 436 q 66 275 53 340 q 107 154 79 210 q 180 54 136 98 q 286 -9 224 11 q 345 -21 315 -17 q 401 -26 375 -26 q 487 -15 446 -26 q 564 16 528 -4 q 690 123 638 60 q 772 260 742 186 q 813 398 804 334 m 439 512 q 458 506 450 512 q 474 491 467 500 q 485 471 481 481 q 488 452 488 461 q 474 418 488 431 q 439 404 459 404 q 405 418 419 404 q 391 452 391 431 q 394 471 391 461 q 405 491 398 481 q 420 506 411 500 q 439 512 429 512 m 439 421 q 461 430 452 421 q 470 452 470 439 q 467 466 470 459 q 460 479 465 473 q 451 489 456 485 q 439 492 445 492 q 427 489 433 492 q 418 479 422 485 q 411 466 414 473 q 409 452 409 459 q 418 430 409 439 q 439 421 427 421 z "},"1":{"ha":768,"x_min":7,"x_max":768,"o":"m 589 212 q 590 191 589 201 q 591 174 590 182 q 664 156 631 172 q 720 117 696 140 q 756 67 743 94 q 768 18 768 41 q 749 -28 768 -12 q 703 -44 729 -44 l 479 -44 q 428 -44 458 -44 q 357 -45 399 -45 q 257 -45 315 -45 q 122 -45 199 -45 q 78 -31 96 -45 q 60 9 60 -17 q 76 63 60 34 q 119 118 92 92 q 184 161 147 143 q 266 180 222 178 q 271 212 269 193 q 275 256 273 231 q 279 364 278 308 q 280 423 279 397 q 280 475 280 449 l 280 573 q 203 538 242 551 q 122 524 163 524 q 34 559 63 524 q 7 629 7 592 q 15 665 7 648 q 33 697 22 683 q 59 724 45 712 q 90 743 74 736 q 137 765 108 753 q 201 790 166 777 q 222 798 212 794 q 243 806 233 802 q 289 824 265 815 q 333 845 312 833 q 370 872 353 857 q 397 907 387 887 q 400 916 399 914 q 405 921 401 918 q 425 923 415 922 q 444 924 435 924 q 512 906 484 924 q 558 860 540 888 q 586 794 576 831 q 601 719 596 757 q 607 645 606 680 q 608 582 608 609 q 604 467 608 522 q 596 357 600 412 q 591 285 593 321 q 589 212 589 249 m 749 18 q 738 62 749 38 q 704 107 726 86 q 651 142 682 128 q 582 157 620 157 q 574 163 576 157 q 570 178 571 170 q 569 195 569 187 q 570 206 570 203 q 572 275 570 235 q 579 357 575 314 q 587 471 583 411 q 590 589 590 531 q 589 650 590 616 q 584 719 588 684 q 570 787 579 753 q 545 847 561 821 q 505 890 529 873 q 446 906 480 906 q 431 905 438 906 q 415 903 424 904 q 378 859 393 874 q 347 834 363 844 q 308 815 331 825 q 248 790 286 806 q 166 758 208 774 q 97 726 125 741 q 71 709 83 720 q 48 685 58 699 q 32 657 38 672 q 26 628 26 643 q 48 571 26 601 q 122 542 71 542 q 208 557 165 542 q 283 597 250 573 q 291 599 288 601 q 295 593 294 597 q 298 583 297 589 q 298 571 298 576 l 298 469 q 297 355 298 414 q 292 246 295 297 q 292 227 292 241 q 289 198 291 213 q 283 173 287 184 q 273 161 279 161 q 196 146 231 161 q 134 108 160 131 q 94 59 109 85 q 79 9 79 32 q 122 -27 79 -27 l 299 -27 q 432 -27 375 -27 q 531 -26 490 -26 q 603 -26 572 -26 q 657 -26 633 -26 l 703 -26 q 737 -14 724 -26 q 749 18 749 -2 z "},"2":{"ha":863,"x_min":13,"x_max":858,"o":"m 854 96 q 855 57 858 76 q 841 22 852 37 q 789 -13 823 0 q 714 -34 755 -26 q 633 -43 674 -41 q 562 -45 592 -45 q 470 -46 519 -46 q 380 -47 421 -47 q 257 -45 302 -47 q 195 -39 212 -43 q 137 -14 159 -31 q 109 28 115 3 q 116 76 104 50 q 150 128 128 102 q 200 179 172 155 q 256 222 228 204 q 305 256 278 237 q 360 294 332 274 q 414 336 388 315 q 459 380 439 358 q 490 422 479 401 q 500 462 502 443 q 456 516 499 494 q 415 529 433 528 q 379 526 396 531 q 347 509 363 520 q 313 484 330 498 q 286 464 300 474 q 256 445 272 453 q 221 431 239 436 q 181 425 203 425 q 104 443 140 425 q 47 493 68 460 q 15 589 18 535 q 25 669 13 630 q 62 745 37 709 q 125 813 87 781 q 212 871 163 845 q 253 890 231 881 q 301 908 275 900 q 355 920 326 916 q 418 925 385 925 q 512 913 466 925 q 598 879 557 901 q 672 825 638 857 q 730 755 706 793 q 775 604 777 677 q 766 531 774 568 q 743 460 758 494 q 666 328 711 389 q 574 209 622 267 q 652 215 607 215 q 715 210 682 215 q 775 192 747 205 q 825 155 804 178 q 854 96 846 132 m 826 33 q 839 73 839 50 q 820 132 839 108 q 773 170 801 155 q 712 191 745 184 q 652 197 680 197 q 596 194 621 197 q 553 186 570 191 q 543 190 546 185 q 544 201 541 195 q 599 270 573 237 q 648 334 625 302 q 691 398 671 366 q 726 465 710 430 q 748 533 741 499 q 758 602 756 566 q 748 674 759 638 q 717 746 738 709 q 657 814 691 784 q 585 865 623 844 q 504 897 546 886 q 418 907 461 907 q 359 903 387 907 q 306 890 331 898 q 260 873 281 882 q 220 854 239 863 q 146 807 181 834 q 84 746 111 780 q 44 673 58 713 q 33 589 30 634 q 47 531 35 557 q 79 484 60 504 q 124 453 98 464 q 181 441 151 441 q 215 446 199 441 q 246 459 231 451 q 275 477 261 467 q 302 497 288 487 q 343 526 324 514 q 382 543 363 538 q 421 545 401 547 q 465 533 441 543 q 519 463 517 504 q 509 419 521 441 q 477 374 497 397 q 430 329 456 351 q 375 286 404 307 q 318 245 347 264 q 267 209 290 226 q 212 165 238 189 q 165 119 185 142 q 135 73 146 96 q 127 31 125 50 q 197 -20 136 -6 q 259 -26 214 -24 q 380 -28 305 -28 l 410 -28 q 447 -27 426 -28 q 495 -27 467 -27 l 562 -27 q 630 -26 591 -27 q 707 -18 669 -24 q 778 0 745 -12 q 826 33 810 12 z "},"3":{"ha":806,"x_min":12,"x_max":785,"o":"m 773 566 q 750 517 765 540 q 715 477 735 495 q 673 446 696 459 q 625 427 650 433 q 684 398 657 416 q 731 354 711 379 q 762 300 751 330 q 772 237 772 270 q 758 165 772 202 q 718 96 743 129 q 631 20 677 50 q 535 -28 585 -11 q 431 -50 485 -45 q 321 -47 377 -54 q 252 -34 288 -42 q 181 -13 216 -26 q 116 20 147 1 q 62 65 85 39 q 25 127 39 92 q 12 208 12 162 q 50 328 12 287 q 123 360 82 356 q 198 349 163 363 q 406 286 341 286 q 417 287 411 286 q 430 291 424 288 q 440 297 435 293 q 446 306 444 300 q 444 341 450 326 q 423 366 437 355 q 390 385 409 377 q 351 399 371 393 q 303 420 325 409 q 275 448 281 431 q 276 474 271 463 q 290 495 281 486 q 310 511 298 504 q 330 525 321 519 q 356 544 342 534 q 380 565 370 555 q 397 586 391 576 q 399 604 402 596 q 355 619 389 619 q 308 614 331 619 q 262 602 284 608 q 218 591 239 596 q 174 585 196 585 q 121 597 146 585 q 77 631 96 608 q 45 719 45 669 q 58 783 45 753 q 93 836 71 813 q 137 872 113 857 q 187 895 161 886 q 240 910 214 905 q 290 920 266 916 q 334 924 313 923 q 372 925 355 925 q 442 921 406 925 q 516 908 479 918 q 590 882 553 898 q 661 842 627 866 q 716 784 690 816 q 759 716 742 752 q 780 642 775 680 q 773 566 785 604 m 575 435 q 626 449 599 437 q 679 478 654 460 q 725 520 705 496 q 756 572 746 544 q 761 644 766 608 q 741 714 756 680 q 701 776 725 747 q 650 827 677 805 q 587 863 621 847 q 517 889 553 878 q 444 904 481 899 q 372 909 407 909 q 280 903 325 909 q 195 882 236 897 q 111 831 147 864 q 74 777 85 808 q 62 715 62 746 q 90 642 62 673 q 126 613 106 622 q 170 604 147 604 q 216 609 193 604 q 263 621 239 614 q 310 632 286 627 q 355 637 333 637 q 416 610 399 637 q 417 584 422 597 q 399 558 412 571 q 371 534 387 546 q 338 512 355 522 q 323 500 331 507 q 308 488 315 494 q 298 472 302 481 q 294 454 294 464 q 312 437 298 445 q 342 424 326 430 q 387 406 364 414 q 429 384 410 397 q 457 351 447 370 q 463 302 467 332 q 406 269 453 269 q 191 332 340 269 q 157 341 175 338 q 123 342 140 344 q 91 333 106 340 q 64 315 76 326 q 30 208 28 279 q 43 133 30 165 q 78 77 56 101 q 129 35 100 52 q 191 5 159 17 q 258 -15 224 -7 q 324 -28 292 -23 q 431 -31 378 -36 q 533 -9 484 -26 q 625 37 582 7 q 704 109 669 66 q 753 239 753 171 q 737 307 753 275 q 696 361 722 338 q 639 399 671 385 q 574 418 607 414 l 561 418 q 557 421 558 418 q 555 427 555 424 q 557 433 555 430 q 561 435 558 435 l 575 435 z "},"4":{"ha":958,"x_min":48,"x_max":953,"o":"m 935 481 q 952 423 951 453 q 939 365 953 393 q 915 336 929 349 q 883 316 900 324 q 848 304 866 308 q 812 300 829 300 q 800 300 807 300 q 786 302 792 300 q 790 262 789 286 q 792 208 792 238 q 790 152 792 182 q 781 94 787 123 q 765 40 775 66 q 738 -6 754 14 q 635 -52 700 -52 q 564 -22 591 -52 q 510 195 510 35 q 511 244 510 218 q 514 298 511 270 q 425 289 465 292 q 348 286 385 286 q 154 320 226 286 q 60 421 83 354 q 51 460 54 439 q 48 503 48 482 q 59 588 48 545 q 87 673 69 631 q 127 752 104 714 q 173 820 149 789 q 220 874 197 851 q 262 907 243 897 q 332 925 296 925 q 430 869 395 925 q 444 836 439 854 q 448 798 448 818 q 437 733 448 768 q 406 663 427 699 q 384 616 392 637 q 376 581 376 596 q 388 555 376 563 q 413 545 399 548 q 427 543 419 544 q 448 542 435 543 q 483 542 462 542 q 538 541 505 541 q 534 590 536 562 q 532 648 532 618 q 534 697 532 672 q 542 747 536 723 q 557 791 548 770 q 581 827 567 812 q 622 857 598 846 q 672 867 645 867 q 781 823 749 863 q 807 770 799 801 q 814 701 814 739 q 810 630 814 667 q 799 554 806 593 q 839 553 819 557 q 877 537 859 548 q 910 512 895 527 q 935 481 924 497 m 922 375 q 933 425 934 401 q 919 472 932 448 q 895 500 909 486 q 864 524 881 514 q 830 538 848 534 q 795 535 812 543 q 778 544 781 531 q 795 719 798 657 q 787 772 794 750 q 767 810 781 795 q 672 847 741 845 q 594 815 626 847 q 572 782 581 801 q 558 740 563 762 q 551 692 553 717 q 549 644 549 668 q 551 589 549 615 q 554 543 553 562 q 556 528 556 530 q 552 523 555 526 q 487 523 512 523 q 446 524 462 524 q 422 525 431 524 q 407 527 414 526 q 372 547 385 531 q 359 583 359 564 q 391 672 359 616 q 420 737 411 705 q 430 797 430 769 q 414 860 430 833 q 332 907 388 907 q 271 891 298 907 q 223 853 250 880 q 170 788 197 826 q 120 704 143 750 q 82 610 96 659 q 65 515 67 562 q 78 426 62 467 q 163 333 98 363 q 348 304 229 304 q 522 316 420 304 q 529 313 526 315 q 532 307 532 311 q 529 251 530 278 q 528 200 528 224 q 540 70 528 122 q 576 -8 552 18 q 635 -35 602 -35 q 685 -24 663 -35 q 724 6 707 -14 q 745 41 736 22 q 759 81 753 60 q 770 149 768 117 q 773 212 773 180 q 770 272 773 245 q 765 313 768 299 q 767 321 765 316 q 777 323 768 326 q 794 318 786 320 q 812 316 803 316 q 876 332 845 316 q 922 375 906 347 z "},"5":{"ha":841,"x_min":31,"x_max":838,"o":"m 63 115 q 38 191 46 153 q 38 267 31 229 q 59 325 44 298 q 94 374 73 353 q 141 407 115 395 q 196 420 167 420 q 278 403 238 420 q 344 354 319 387 q 353 307 363 327 q 338 241 338 267 q 347 211 338 222 q 373 199 355 199 q 422 230 404 199 q 438 270 434 250 q 433 309 441 291 q 394 365 419 340 q 338 410 368 390 q 277 447 309 431 q 219 479 245 464 q 177 503 198 490 q 142 528 157 515 l 143 528 q 112 572 125 546 q 92 626 100 597 q 82 684 85 655 q 79 736 79 712 q 126 882 79 833 q 169 902 136 892 q 251 919 203 911 q 355 931 298 926 q 469 935 412 935 q 534 933 496 935 q 613 926 572 932 q 695 910 654 920 q 767 882 735 899 q 819 841 799 865 q 838 781 838 816 q 827 702 838 735 q 795 646 815 669 q 749 609 775 623 q 693 588 722 595 q 633 578 664 581 q 575 575 603 575 l 551 575 q 533 575 542 575 q 514 576 524 576 q 490 578 504 577 q 551 556 519 569 q 611 526 582 544 q 667 485 641 509 q 713 430 693 461 q 744 360 732 399 q 755 272 755 321 q 724 137 755 196 q 642 35 693 77 q 528 -31 591 -8 q 401 -54 464 -54 q 290 -41 342 -54 q 186 -3 239 -29 q 116 47 148 18 q 63 115 83 77 m 386 608 q 433 600 408 603 q 483 595 458 597 q 531 594 507 594 q 575 593 555 593 q 761 638 703 593 q 820 781 820 682 q 801 833 820 812 q 752 870 783 855 q 684 895 722 886 q 607 909 646 904 q 531 916 568 914 q 469 918 495 918 q 355 913 411 918 q 254 901 299 908 q 178 885 209 894 q 138 867 146 876 q 107 813 118 847 q 97 734 97 779 q 100 688 97 716 q 110 631 103 660 q 127 577 117 602 q 153 541 138 553 q 234 489 192 511 q 317 443 277 467 q 394 388 357 419 q 450 317 431 357 q 456 292 455 305 q 455 266 457 279 q 449 241 453 253 q 438 219 444 229 q 373 181 412 181 q 328 204 339 184 q 322 254 317 224 q 328 285 325 271 q 337 313 332 300 q 338 328 340 320 q 331 343 336 336 q 304 369 321 357 q 269 387 288 380 q 231 399 250 395 q 196 403 212 403 q 144 390 168 403 q 102 357 121 377 q 72 311 84 336 q 54 262 59 286 q 55 191 48 225 q 79 123 62 156 q 118 69 94 97 q 181 18 142 41 q 273 -20 219 -5 q 401 -35 328 -35 q 523 -14 462 -35 q 631 47 583 7 q 709 144 680 87 q 739 272 739 201 q 708 408 739 353 q 631 494 677 460 q 530 547 585 528 q 453 570 490 560 q 380 591 417 581 q 376 595 377 592 q 376 601 375 598 q 379 607 377 604 q 386 608 382 609 z "},"6":{"ha":868,"x_min":71,"x_max":833,"o":"m 772 432 q 818 358 803 399 q 833 274 833 318 q 810 164 833 219 q 741 62 787 109 q 608 -24 688 6 q 435 -54 529 -54 q 343 -45 387 -54 q 262 -21 300 -37 q 193 18 224 -5 q 139 70 161 41 q 87 175 103 120 q 71 283 71 230 q 85 400 71 342 q 123 512 99 458 q 179 616 146 567 q 250 709 212 666 q 313 769 283 743 q 375 818 343 796 q 447 864 408 842 q 528 903 486 886 q 612 928 570 920 q 696 933 655 937 q 744 919 723 930 q 780 888 765 907 q 803 847 794 870 q 814 801 811 825 q 809 754 814 779 q 789 707 804 730 q 750 667 774 685 q 688 640 726 649 q 615 616 651 631 q 549 586 580 602 q 495 554 519 570 q 458 524 471 538 q 502 531 481 529 q 543 533 524 533 q 772 432 682 533 m 728 76 q 794 172 772 120 q 817 275 817 223 q 803 352 817 315 q 760 420 789 389 q 661 492 714 468 q 543 516 608 516 q 493 512 519 516 q 439 503 467 509 q 428 515 428 503 q 459 550 435 530 q 519 591 484 570 q 597 629 554 611 q 685 657 641 647 q 737 681 715 665 q 772 716 759 696 q 791 758 785 736 q 795 801 796 780 q 785 840 793 820 q 764 876 777 859 q 734 904 751 892 q 694 918 716 916 l 677 918 q 587 904 637 918 q 482 862 537 890 q 371 792 427 833 q 262 694 315 750 q 193 603 224 651 q 139 502 162 554 q 104 394 117 449 q 91 282 91 338 q 106 175 91 227 q 153 81 121 123 q 203 33 174 54 q 270 -4 233 11 q 348 -27 306 -19 q 435 -35 390 -35 q 602 -6 526 -35 q 728 76 677 22 m 469 302 q 505 281 490 302 q 516 261 512 271 q 519 241 519 250 q 505 207 519 221 q 469 193 490 193 q 436 207 450 193 q 422 241 422 221 q 435 281 422 260 q 469 302 450 302 m 469 211 q 491 220 483 211 q 500 241 500 229 q 497 255 500 248 q 490 269 494 262 q 481 279 486 275 q 469 283 475 283 q 458 279 463 283 q 448 269 452 275 q 442 255 444 262 q 439 241 439 248 q 449 220 439 229 q 469 211 458 211 z "},"7":{"ha":785,"x_min":7,"x_max":785,"o":"m 766 395 q 781 361 776 379 q 777 327 785 343 q 739 293 762 304 q 688 278 715 282 q 633 277 661 275 q 584 282 606 279 q 436 -5 488 72 q 393 -40 420 -26 q 337 -57 366 -53 q 280 -53 308 -60 q 234 -25 252 -45 q 219 8 220 -9 q 221 43 218 26 q 248 159 233 104 q 283 275 262 214 q 231 276 258 272 q 181 292 203 280 q 145 325 159 304 q 133 376 132 345 q 145 415 134 398 q 175 443 157 431 q 212 459 192 454 q 251 465 233 465 q 301 462 279 465 q 342 460 322 460 q 353 485 347 471 q 364 515 359 500 q 372 546 369 531 q 376 575 376 562 q 371 598 376 589 q 358 611 366 606 q 339 616 350 615 q 317 618 328 618 q 245 614 279 618 q 178 611 212 611 q 117 616 145 611 q 68 635 90 621 q 32 673 47 649 q 12 736 18 698 q 13 791 7 765 q 37 839 19 817 q 105 888 62 869 q 202 917 149 907 q 314 930 256 926 q 428 935 373 934 q 704 859 625 935 q 727 820 720 842 q 733 769 733 798 q 723 688 733 731 q 699 603 713 646 q 668 519 685 559 q 638 446 652 479 q 671 441 653 445 q 707 432 690 438 q 741 416 725 425 q 766 395 756 407 m 761 334 q 750 385 769 355 q 730 403 744 395 q 698 418 715 412 q 661 427 680 424 q 626 429 642 430 q 618 434 618 429 q 618 445 617 439 q 650 524 633 484 q 681 604 667 564 q 704 685 695 644 q 713 768 713 726 q 708 813 713 793 q 689 846 703 833 q 587 900 655 882 q 404 918 519 918 q 358 916 387 917 q 297 912 330 915 q 228 904 264 909 q 158 888 192 898 q 96 863 125 878 q 50 827 68 848 q 28 740 20 783 q 47 684 35 706 q 79 650 60 663 q 123 634 98 638 q 178 629 148 629 q 250 633 216 629 q 319 636 284 636 q 374 620 354 636 q 394 570 394 604 q 390 536 394 554 q 379 500 385 517 q 366 469 373 484 q 355 446 359 455 q 352 442 353 443 q 347 441 351 441 q 299 445 321 444 q 251 446 276 446 q 217 441 235 446 q 184 428 199 437 q 159 406 169 419 q 150 374 150 393 q 165 325 150 342 q 202 300 180 308 q 250 293 224 293 q 297 294 275 292 q 307 283 307 294 q 266 160 281 216 q 251 101 258 133 q 238 39 244 69 q 247 -13 232 7 q 289 -37 264 -31 q 338 -39 313 -43 q 386 -24 363 -35 q 422 5 409 -12 q 484 114 446 41 q 571 296 522 186 q 581 300 571 300 q 626 295 600 297 q 678 296 652 294 q 727 307 705 298 q 761 334 750 316 z "},"8":{"ha":789,"x_min":13,"x_max":778,"o":"m 626 431 q 674 395 653 416 q 711 348 696 374 q 734 293 726 321 q 743 235 743 264 q 732 169 743 201 q 701 106 721 136 q 639 42 675 71 q 559 -9 603 12 q 466 -42 515 -30 q 366 -54 416 -54 q 252 -37 310 -54 q 146 11 195 -20 q 63 88 97 43 q 20 191 28 133 q 24 271 13 234 q 59 340 36 309 q 113 397 81 372 q 176 441 144 422 q 84 517 118 469 q 50 627 50 566 q 63 701 50 666 q 99 767 77 736 q 149 823 121 798 q 207 868 177 848 q 317 918 258 900 q 433 937 377 937 q 545 920 491 937 q 643 874 600 903 q 718 806 687 846 q 758 722 748 767 q 742 553 778 627 q 626 431 706 479 m 686 116 q 714 173 705 143 q 724 234 724 203 q 714 294 724 264 q 689 348 705 323 q 650 392 673 373 q 601 423 628 412 q 602 439 594 431 q 724 557 688 486 q 740 718 760 627 q 701 796 730 760 q 631 860 673 832 q 539 903 590 887 q 433 919 488 919 q 322 902 376 919 q 217 854 268 885 q 156 805 183 831 q 109 749 128 779 q 78 690 89 720 q 68 629 68 659 q 78 568 68 597 q 105 517 87 540 q 148 477 123 494 q 201 452 172 460 q 203 433 211 444 q 131 388 163 412 q 76 336 98 365 q 43 273 54 308 q 37 193 33 237 q 84 95 50 138 q 163 23 118 52 q 262 -20 209 -5 q 366 -35 315 -35 q 462 -24 414 -35 q 552 6 509 -14 q 629 54 594 26 q 686 116 663 81 m 365 271 q 390 268 376 271 q 414 259 403 265 q 434 244 425 253 q 444 224 442 235 q 441 207 446 216 q 432 191 437 198 q 405 170 421 179 q 372 161 389 161 q 348 165 360 161 q 327 175 336 169 q 310 191 317 182 q 302 210 304 200 q 307 234 301 223 q 322 252 313 244 q 343 264 332 260 q 365 271 355 269 m 427 220 q 421 233 426 227 q 408 243 416 239 q 391 251 400 248 q 372 253 381 253 q 354 250 363 253 q 337 241 345 247 q 325 229 330 236 q 319 212 319 221 q 343 186 325 193 q 376 180 361 178 q 392 184 382 181 q 409 193 401 188 q 422 205 417 198 q 427 220 428 212 m 482 642 q 490 643 486 644 q 495 640 494 642 q 496 633 497 637 q 490 627 495 629 q 459 616 476 621 q 426 612 443 612 q 394 615 410 611 q 367 629 379 619 q 364 636 363 632 q 367 642 364 640 q 372 645 369 644 q 379 642 376 645 q 403 630 389 633 q 430 629 416 628 q 458 635 444 631 q 482 642 471 639 z "},"9":{"ha":870,"x_min":37,"x_max":804,"o":"m 736 798 q 789 699 773 752 q 804 588 804 646 q 790 477 804 534 q 752 367 777 421 q 696 262 728 313 q 626 170 663 212 q 556 104 591 134 q 484 52 520 75 q 468 41 476 46 q 453 32 460 37 q 312 -33 379 -12 q 197 -54 244 -54 q 145 -42 169 -54 q 103 -12 121 -31 q 74 31 85 7 q 60 79 62 55 q 65 126 59 102 q 85 173 71 151 q 124 213 100 195 q 186 239 149 230 q 259 261 224 248 q 326 290 295 275 q 379 322 356 306 q 416 352 403 338 q 372 346 393 348 q 332 343 351 343 q 100 442 193 343 q 50 532 62 484 q 44 630 37 581 q 73 725 50 679 q 131 807 96 771 q 266 891 186 862 q 438 920 345 920 q 614 888 536 920 q 736 798 692 857 m 612 183 q 683 273 651 224 q 737 375 714 322 q 772 483 760 428 q 784 590 784 537 q 769 696 784 645 q 724 790 754 747 q 672 838 702 817 q 605 873 642 859 q 526 895 568 887 q 438 903 484 903 q 273 874 349 903 q 145 793 197 846 q 89 714 111 757 q 60 626 66 671 q 66 537 54 581 q 114 456 79 493 q 332 361 201 361 q 382 364 355 361 q 436 372 409 367 q 444 367 439 372 q 446 360 448 362 q 414 326 439 345 q 353 286 389 306 q 275 249 317 267 q 189 221 232 231 q 135 198 157 213 q 100 163 113 182 q 82 123 87 144 q 78 82 77 102 q 88 38 79 59 q 114 0 98 16 q 151 -26 130 -16 q 197 -35 172 -35 q 288 -22 237 -35 q 392 18 338 -9 q 503 86 447 45 q 612 183 559 127 m 501 629 q 509 631 505 631 q 514 627 512 630 q 516 621 516 625 q 513 614 516 617 q 465 589 491 597 q 413 581 439 581 q 333 601 376 581 q 330 607 330 604 q 330 614 329 611 q 334 618 331 617 q 340 618 336 620 q 381 603 362 607 q 416 599 399 599 q 450 603 435 599 q 476 612 465 607 q 494 623 488 618 q 501 629 500 627 z "},"B":{"ha":828,"x_min":24,"x_max":814,"o":"m 762 388 q 804 298 793 349 q 802 197 814 248 q 754 100 788 144 q 671 25 720 56 q 559 -24 622 -7 q 427 -41 497 -41 q 393 -40 416 -41 q 340 -37 370 -39 q 277 -30 311 -35 q 210 -16 243 -24 q 150 6 178 -7 q 103 37 121 18 q 60 107 76 63 q 36 200 44 151 q 26 298 28 249 q 26 384 24 347 q 32 490 27 437 q 45 594 37 544 q 63 690 53 645 q 85 773 73 736 q 110 836 97 810 q 136 873 123 862 q 213 911 163 898 q 326 925 262 925 q 410 919 368 925 q 489 902 451 913 q 561 874 528 890 q 621 838 595 858 q 685 768 662 806 q 713 690 709 730 q 707 618 718 653 q 671 552 696 583 q 570 479 634 507 q 640 467 609 476 q 695 445 671 458 q 735 417 718 432 q 762 388 751 402 m 786 201 q 788 295 798 248 q 750 378 779 342 q 658 444 715 422 q 517 465 601 465 q 485 461 502 463 q 450 459 467 459 q 427 460 439 459 q 405 463 416 460 q 398 472 397 464 q 401 477 399 475 q 406 478 404 478 q 450 476 430 476 q 571 499 516 476 q 659 563 626 522 q 691 622 681 590 q 698 688 701 654 q 671 760 692 726 q 612 824 649 794 q 553 859 586 843 q 484 885 521 874 q 407 902 447 897 q 325 908 366 908 q 218 896 264 908 q 146 861 172 883 q 122 825 134 850 q 99 764 110 800 q 78 683 87 728 q 61 588 68 637 q 48 486 53 538 q 42 383 43 434 q 57 171 39 257 q 115 48 76 85 q 170 15 135 28 q 248 -7 205 1 q 337 -20 290 -16 q 427 -24 383 -24 q 542 -10 484 -24 q 649 33 600 4 q 735 103 699 61 q 786 201 772 145 m 449 286 q 473 283 461 286 q 496 273 486 279 q 513 258 506 267 q 522 239 520 250 q 516 215 523 227 q 498 196 509 204 q 474 182 487 187 q 448 178 460 178 q 425 181 437 178 q 404 191 414 184 q 388 206 395 197 q 380 226 381 215 q 385 249 378 238 q 401 269 391 260 q 425 281 412 277 q 449 286 437 286 m 448 195 q 465 198 455 195 q 484 206 475 201 q 499 219 493 212 q 505 237 505 227 q 498 250 504 244 q 485 260 493 256 q 467 267 477 264 q 449 269 458 269 q 432 267 441 269 q 415 258 423 264 q 402 245 408 253 q 397 228 397 238 q 414 204 398 214 q 448 195 431 195 m 408 653 q 353 618 374 652 q 342 617 349 612 q 339 628 336 621 q 369 658 351 647 q 408 670 387 669 q 473 632 448 670 q 472 621 477 625 q 459 623 466 617 q 408 653 439 653 z "},"C":{"ha":812,"x_min":26,"x_max":793,"o":"m 656 469 q 705 460 680 469 q 749 429 729 450 q 781 373 768 408 q 793 288 793 338 q 785 215 793 249 q 758 149 776 180 q 711 89 739 118 q 643 32 682 60 q 532 -23 592 -4 q 409 -42 472 -42 q 216 5 310 -42 q 134 68 169 28 q 77 157 100 108 q 42 261 54 205 q 28 372 30 317 q 33 481 26 428 q 56 578 40 534 q 168 770 94 690 q 346 893 241 850 q 422 917 385 909 q 498 925 460 925 q 617 902 562 925 q 713 836 673 879 q 774 727 755 789 q 787 591 793 664 q 777 554 786 572 q 752 519 767 535 q 716 491 736 503 q 671 476 695 479 q 649 474 661 475 q 626 473 637 473 q 586 476 607 473 q 544 484 564 478 q 504 498 523 490 q 473 521 486 507 q 473 471 474 496 q 467 432 472 453 q 538 458 491 449 q 656 469 585 468 m 633 45 q 698 99 671 72 q 743 156 725 127 q 769 218 760 186 q 777 288 777 251 q 767 365 777 333 q 739 416 756 397 q 700 444 722 435 q 656 453 678 453 q 560 445 597 451 q 502 431 523 439 q 471 414 480 423 q 460 399 463 406 q 447 349 456 374 q 426 301 437 324 q 414 297 421 295 q 411 308 407 300 q 431 355 420 332 q 445 405 441 379 q 452 439 450 422 q 456 471 455 456 q 457 515 458 493 q 453 559 456 536 q 448 585 450 572 q 442 608 445 597 q 437 632 439 621 q 437 638 435 635 q 441 642 439 641 q 447 642 444 643 q 452 637 450 641 q 459 615 453 635 q 469 561 465 595 q 486 530 471 543 q 523 507 501 516 q 572 494 545 498 q 626 490 599 490 q 648 490 637 490 q 669 492 659 491 q 708 505 690 495 q 740 530 726 515 q 762 560 753 544 q 772 592 770 576 q 759 722 777 663 q 701 825 741 781 q 611 887 663 865 q 498 909 559 909 q 352 878 425 909 q 180 759 251 836 q 71 573 109 682 q 50 481 57 532 q 45 376 43 430 q 59 268 47 321 q 92 166 70 214 q 147 80 114 119 q 224 20 180 42 q 409 -26 314 -26 q 527 -7 469 -26 q 633 45 584 12 z "},"D":{"ha":781,"x_min":25,"x_max":771,"o":"m 650 754 q 744 583 717 682 q 753 372 771 484 q 722 255 743 311 q 668 151 700 199 q 596 64 636 102 q 509 0 555 25 q 465 -19 490 -10 q 411 -33 440 -27 q 351 -42 382 -39 q 287 -45 319 -45 q 202 -39 241 -45 q 132 -21 163 -33 q 80 8 101 -9 q 48 47 58 25 q 36 99 41 62 q 28 190 31 137 q 25 306 26 242 q 27 436 25 369 q 35 570 30 503 q 48 695 40 637 q 68 802 57 754 q 96 877 80 849 q 136 913 112 909 q 188 919 163 917 q 239 921 214 921 q 350 911 299 921 q 444 887 401 902 q 521 852 487 871 q 581 815 555 833 q 624 780 607 796 q 650 754 642 764 m 736 376 q 728 578 753 483 q 639 744 703 674 q 613 768 630 753 q 571 802 596 784 q 513 838 546 820 q 438 871 479 857 q 347 895 397 886 q 239 905 297 905 q 189 902 214 905 q 138 897 164 900 q 110 869 123 895 q 84 795 95 842 q 64 691 73 749 q 52 567 56 633 q 44 435 47 501 q 42 306 42 369 q 45 192 43 243 q 52 104 47 141 q 63 54 57 68 q 97 15 73 31 q 152 -10 121 -1 q 218 -24 183 -20 q 287 -28 253 -28 q 407 -17 351 -28 q 500 14 464 -5 q 585 77 546 39 q 654 161 624 115 q 706 262 685 208 q 736 376 727 317 m 397 503 q 416 496 408 503 q 432 481 425 490 q 442 462 438 473 q 446 442 446 451 q 431 409 446 422 q 397 395 417 395 q 364 409 378 395 q 350 442 350 422 q 354 462 350 451 q 363 481 357 473 q 378 496 370 490 q 397 503 387 503 m 397 410 q 420 419 411 410 q 429 442 429 429 q 426 457 429 450 q 419 471 423 465 q 409 481 415 477 q 397 486 404 486 q 386 481 391 486 q 376 471 380 477 q 369 457 372 465 q 366 442 366 450 q 375 419 366 429 q 397 410 385 410 z "},"E":{"ha":735,"x_min":24,"x_max":720,"o":"m 707 235 q 711 133 720 180 q 673 47 702 85 q 585 -19 640 5 q 458 -47 530 -43 q 319 -43 390 -50 q 181 -11 249 -37 q 36 153 52 38 q 26 279 28 210 q 29 421 24 349 q 42 566 33 494 q 65 700 52 638 q 95 807 78 761 q 130 874 111 853 q 212 916 153 901 q 357 930 271 930 q 445 925 399 930 q 530 911 490 920 q 602 886 570 901 q 651 852 634 871 q 684 792 673 825 q 694 728 695 760 q 680 666 692 696 q 642 615 667 637 q 592 581 620 595 q 532 555 565 566 q 608 463 602 536 q 596 417 609 439 q 562 380 583 395 q 606 367 584 377 q 649 339 629 357 q 684 295 669 321 q 707 235 699 269 m 660 57 q 694 137 686 92 q 690 232 703 181 q 663 297 682 271 q 623 338 645 323 q 577 359 600 353 q 536 366 554 366 q 463 340 503 349 q 382 330 422 330 q 354 332 367 330 q 328 335 340 333 q 321 343 320 336 q 329 352 321 351 q 356 348 342 349 q 382 347 369 347 q 435 351 409 347 q 486 362 462 355 q 530 380 509 370 q 564 404 550 391 q 591 462 593 431 q 494 545 585 540 q 436 535 466 538 q 373 532 406 532 q 354 532 363 532 q 336 532 345 532 q 331 536 332 533 q 329 541 329 538 q 331 546 329 544 q 336 549 332 549 q 355 548 346 549 q 373 548 363 548 q 522 568 456 548 q 631 627 587 588 q 665 673 653 646 q 677 729 676 700 q 669 788 678 759 q 639 841 659 817 q 598 870 625 857 q 533 893 571 884 q 451 908 496 903 q 357 914 406 914 q 219 901 275 914 q 142 864 162 887 q 109 799 125 844 q 80 693 93 753 q 59 561 68 632 q 45 418 50 490 q 42 278 41 346 q 52 155 43 210 q 83 80 60 111 q 138 28 106 49 q 211 -5 171 7 q 293 -23 251 -17 q 377 -30 335 -28 q 456 -31 419 -31 q 576 -5 524 -28 q 660 57 629 18 z "},"F":{"ha":719,"x_min":26,"x_max":702,"o":"m 610 876 q 660 842 641 863 q 688 797 678 821 q 700 747 698 772 q 699 701 702 722 q 685 656 694 678 q 659 616 675 634 q 622 585 644 597 q 572 568 600 572 q 593 555 581 563 q 610 538 605 547 q 601 477 626 513 q 569 454 591 463 q 513 438 546 444 q 468 434 491 435 q 422 435 446 434 q 481 370 459 408 q 510 288 503 332 q 508 198 517 245 q 475 108 500 152 q 380 -2 436 36 q 258 -39 325 -39 q 207 -34 233 -39 q 155 -16 181 -28 q 61 139 94 14 q 38 261 46 195 q 28 397 30 328 q 30 533 26 466 q 42 659 34 600 q 64 761 51 717 q 93 829 77 806 q 194 899 125 874 q 359 924 264 924 q 428 921 393 924 q 495 911 463 918 q 557 897 528 905 q 610 876 587 888 m 541 581 q 597 591 573 581 q 638 619 621 602 q 665 657 655 636 q 680 699 675 679 q 683 746 684 722 q 672 792 681 770 q 647 832 663 814 q 604 862 630 850 q 550 880 580 872 q 489 895 521 888 q 422 904 456 901 q 356 907 389 907 q 294 904 330 907 q 224 891 259 901 q 157 865 189 882 q 105 820 125 848 q 78 754 90 798 q 58 653 66 710 q 46 530 50 596 q 45 395 43 463 q 55 262 47 328 q 77 143 62 197 q 114 48 92 84 q 163 -1 136 12 q 212 -18 188 -12 q 259 -24 237 -24 q 372 12 321 -24 q 461 115 423 48 q 493 208 486 160 q 490 299 500 256 q 454 380 480 343 q 387 439 428 416 q 337 452 359 445 q 301 471 315 460 q 298 480 296 474 q 306 486 300 486 q 312 484 308 486 q 340 469 323 475 q 376 459 357 463 q 416 453 395 455 q 454 452 436 452 q 483 453 469 452 q 511 455 497 454 q 560 468 540 460 q 588 487 581 475 q 595 530 607 514 q 564 555 587 545 q 512 570 541 564 q 453 578 484 576 q 400 581 423 581 q 380 580 389 581 q 365 578 372 580 q 359 581 361 578 q 356 586 357 583 q 358 592 356 589 q 364 595 360 595 q 379 596 370 595 q 400 596 389 596 q 425 596 409 596 q 459 594 440 595 q 500 589 479 592 q 541 581 522 586 z "},"G":{"ha":828,"x_min":25,"x_max":807,"o":"m 806 273 q 807 212 806 245 q 804 145 807 179 q 794 79 802 112 q 771 19 787 47 q 731 -28 756 -8 q 669 -58 707 -49 q 555 -31 600 -64 q 481 70 509 3 q 455 35 475 54 q 408 1 435 16 q 348 -25 381 -15 q 282 -35 315 -35 q 244 -32 262 -35 q 211 -20 227 -28 q 131 41 165 2 q 75 131 98 81 q 41 240 53 182 q 27 356 30 298 q 32 471 25 415 q 54 572 39 526 q 104 689 75 635 q 170 785 134 743 q 249 857 206 827 q 337 899 291 886 q 406 915 372 910 q 473 920 439 920 q 596 898 541 920 q 692 835 651 876 q 751 726 733 789 q 762 585 769 663 q 746 533 760 555 q 710 495 732 511 q 662 472 689 480 q 606 465 635 465 q 565 467 587 465 q 522 476 543 470 q 483 493 501 483 q 454 518 465 503 q 458 424 460 471 q 454 323 456 376 q 470 359 461 341 q 487 389 478 377 q 532 427 509 413 q 579 448 555 441 q 626 458 602 456 q 673 460 649 460 q 720 450 696 460 q 763 418 744 440 q 794 360 782 396 q 806 273 806 324 m 668 -41 q 724 -17 702 -35 q 759 26 746 1 q 779 84 772 52 q 788 148 785 115 q 790 213 790 181 q 789 273 789 245 q 779 353 789 320 q 753 406 769 385 q 715 435 736 426 q 673 444 694 444 q 628 441 650 444 q 584 432 606 439 q 541 412 562 425 q 499 377 520 399 q 481 348 490 367 q 466 310 473 329 q 455 277 459 292 l 451 264 q 442 256 449 256 q 437 260 439 257 q 435 266 435 262 q 437 297 436 276 q 438 346 437 319 q 440 404 439 373 q 441 463 441 434 q 440 487 441 471 q 437 521 439 503 q 432 558 435 539 q 428 592 430 576 q 424 618 426 608 q 422 630 422 629 q 424 636 422 633 q 431 640 426 640 q 439 633 437 640 l 440 626 q 445 608 442 619 q 450 583 448 597 q 456 555 453 569 q 473 523 458 536 q 508 499 487 509 q 554 486 528 490 q 606 481 580 481 q 656 488 632 481 q 700 509 681 495 q 732 543 720 523 q 747 587 745 562 q 735 721 752 661 q 679 822 718 780 q 590 883 642 863 q 473 904 538 904 q 408 899 441 904 q 341 884 374 893 q 257 843 297 871 q 181 774 216 815 q 117 682 146 734 q 69 568 89 629 q 48 470 55 524 q 43 359 41 416 q 56 246 45 302 q 87 141 66 190 q 141 54 109 92 q 217 -5 173 16 q 248 -16 231 -13 q 282 -19 264 -19 q 348 -8 316 -19 q 407 19 380 3 q 449 52 433 35 q 468 82 466 70 q 471 91 469 85 q 479 97 473 97 q 488 92 485 97 q 496 76 491 87 q 525 24 509 47 q 561 -15 541 1 q 608 -38 581 -31 q 668 -41 634 -45 z "},"H":{"ha":894,"x_min":26,"x_max":876,"o":"m 872 477 q 875 359 876 418 q 867 244 873 300 q 847 140 860 189 q 816 54 834 92 q 773 -8 798 16 q 717 -39 748 -33 q 653 -44 687 -45 q 588 -34 620 -43 q 531 -3 557 -24 q 492 51 505 17 q 479 103 484 72 q 473 170 475 134 q 470 240 471 205 q 469 306 469 276 l 469 333 q 469 357 469 347 q 451 356 460 356 q 433 357 442 355 l 433 306 q 432 240 433 276 q 429 170 431 205 q 423 103 427 134 q 410 51 418 72 q 373 -2 398 18 q 317 -33 348 -23 q 251 -44 286 -43 q 184 -39 216 -45 q 129 -8 153 -33 q 85 54 104 16 q 55 140 67 92 q 35 244 42 189 q 27 359 28 300 q 31 477 26 418 q 43 581 35 528 q 64 683 51 634 q 95 775 77 732 q 138 851 113 819 q 193 902 162 883 q 261 920 223 920 q 326 906 299 920 q 370 867 352 891 q 400 812 388 843 q 421 749 412 781 q 429 706 426 731 q 432 654 431 682 q 433 597 433 626 l 433 519 l 457 519 q 459 574 457 543 q 464 638 460 606 q 471 700 467 670 q 481 749 475 729 q 503 812 491 781 q 533 867 515 843 q 577 906 551 891 q 641 920 603 920 q 710 902 679 920 q 765 851 741 883 q 808 776 789 819 q 840 684 827 733 q 861 582 852 635 q 872 477 869 529 m 714 -22 q 765 7 743 -16 q 805 68 787 31 q 833 152 822 104 q 851 253 845 199 q 859 363 857 307 q 856 477 860 420 q 844 582 852 530 q 823 682 836 634 q 792 770 810 729 q 752 840 774 810 q 702 887 729 870 q 642 904 674 904 q 585 891 608 904 q 545 856 562 878 q 518 804 529 833 q 498 744 507 775 q 488 698 492 726 q 480 638 484 670 q 475 575 477 607 q 473 518 473 543 q 501 512 489 516 q 520 503 513 509 q 524 497 522 500 q 519 489 524 493 q 510 490 515 486 q 485 499 503 496 q 445 503 467 503 q 372 490 401 503 q 367 488 370 487 q 362 492 363 490 q 361 498 360 495 q 366 503 361 501 q 389 512 376 509 q 416 518 401 516 q 417 530 417 524 l 417 594 q 416 650 417 623 q 412 703 415 678 q 405 744 410 728 q 385 804 395 775 q 357 856 374 833 q 318 891 341 878 q 261 904 295 904 q 200 887 228 904 q 151 840 173 870 q 111 769 128 810 q 80 681 93 728 q 59 581 67 633 q 47 477 51 529 q 44 364 43 421 q 51 253 45 307 q 69 152 57 199 q 98 68 81 104 q 137 7 115 31 q 189 -22 160 -16 q 246 -27 215 -28 q 307 -19 277 -27 q 359 7 336 -11 q 395 57 383 26 q 407 107 403 77 q 413 172 411 137 q 416 241 415 206 q 416 306 416 276 l 416 357 q 389 363 401 360 q 366 372 376 367 q 361 381 360 376 q 369 387 361 387 q 371 387 370 387 q 372 387 372 387 q 405 376 386 380 q 445 372 423 372 q 485 376 467 372 q 509 386 503 380 q 515 387 513 387 q 523 382 520 387 q 520 373 526 377 q 506 366 515 369 q 486 360 498 362 q 486 335 486 349 l 486 306 q 487 241 486 276 q 489 172 487 206 q 495 107 491 137 q 508 57 500 77 q 543 8 520 26 q 594 -18 566 -9 q 654 -27 623 -27 q 714 -22 686 -28 z "},"I":{"ha":449,"x_min":25,"x_max":441,"o":"m 361 876 q 425 726 408 827 q 431 463 441 625 q 423 384 429 425 q 410 301 418 343 q 392 217 402 258 q 370 138 382 176 q 352 80 362 112 q 326 21 342 48 q 286 -25 310 -7 q 227 -44 262 -44 q 175 -33 198 -44 q 134 -2 152 -21 q 103 42 117 17 q 80 94 90 67 q 63 149 71 121 q 51 201 56 176 q 36 289 41 242 q 27 383 30 336 q 26 474 25 430 q 30 553 26 517 q 96 834 45 742 q 239 926 147 926 q 361 876 315 926 m 415 463 q 409 720 425 621 q 349 865 393 818 q 239 909 309 909 q 107 821 155 909 q 46 553 60 733 q 43 474 43 517 q 44 385 42 431 q 52 292 47 338 q 67 205 58 245 q 78 160 72 185 q 93 109 84 135 q 114 59 102 83 q 142 15 125 35 q 179 -16 158 -4 q 227 -27 200 -27 q 279 -9 258 -27 q 315 34 300 8 q 339 90 330 60 q 355 143 349 119 q 376 221 366 180 q 394 303 386 262 q 408 386 402 345 q 415 463 413 427 m 248 970 q 170 989 203 970 q 121 1040 136 1007 q 105 1116 102 1082 q 120 1177 107 1150 q 152 1223 134 1204 q 183 1253 170 1242 q 232 1278 205 1270 q 286 1287 258 1287 q 311 1285 297 1287 q 340 1277 325 1283 q 370 1261 355 1272 q 401 1235 386 1251 q 428 1178 424 1210 q 422 1115 431 1146 q 397 1055 414 1083 q 361 1010 380 1027 q 312 981 342 991 q 248 970 281 970 m 193 1240 q 161 1210 178 1228 q 133 1168 144 1192 q 121 1113 122 1143 q 136 1047 119 1083 q 179 1003 149 1019 q 248 987 208 987 q 306 996 279 987 q 350 1023 332 1006 q 382 1063 366 1038 q 406 1117 398 1088 q 412 1174 414 1145 q 389 1224 410 1202 q 334 1262 362 1253 q 286 1271 307 1271 q 237 1263 260 1271 q 193 1240 213 1255 z "},"J":{"ha":996,"x_min":23,"x_max":975,"o":"m 970 757 q 974 729 972 747 q 972 689 975 711 q 959 642 968 667 q 932 593 950 618 q 907 566 922 580 q 871 538 892 551 q 821 513 849 524 q 755 494 792 501 q 772 430 766 468 q 778 349 779 393 q 767 258 777 305 q 739 166 758 211 q 715 117 730 143 q 679 66 701 91 q 630 21 658 42 q 565 -12 602 1 q 482 -33 528 -26 q 388 -40 437 -40 q 290 -32 340 -40 q 194 -7 239 -24 q 112 38 149 10 q 56 106 75 66 q 31 181 38 143 q 26 254 23 218 q 41 322 28 290 q 77 382 54 354 q 152 438 109 418 q 244 458 195 458 q 291 453 268 458 q 334 438 314 448 q 371 410 354 427 q 399 369 387 393 q 397 425 399 397 q 404 481 396 453 q 144 576 209 481 q 121 630 127 602 q 118 684 116 658 q 126 732 119 710 q 140 770 133 755 q 285 889 181 850 q 564 928 389 928 q 636 927 596 928 q 716 921 675 926 q 798 906 758 916 q 872 877 838 896 q 932 829 907 858 q 970 757 958 800 m 920 603 q 943 645 935 623 q 955 687 951 667 q 958 724 959 707 q 955 753 958 741 q 906 836 940 805 q 825 882 871 866 q 722 904 778 899 q 610 911 667 909 q 586 911 597 911 q 564 911 575 911 q 294 874 395 911 q 155 763 193 837 q 142 728 149 749 q 134 683 136 707 q 137 633 132 659 q 157 585 142 608 q 404 498 216 498 q 441 499 421 498 q 481 501 460 500 q 490 494 490 501 q 482 485 491 486 q 451 483 467 484 q 420 481 436 482 q 415 442 415 469 l 415 387 q 416 340 416 364 q 414 292 416 315 q 412 261 414 277 q 404 228 410 245 q 360 175 390 185 q 359 175 359 175 q 357 174 358 174 q 350 181 351 174 q 355 191 349 187 q 368 200 356 191 q 389 237 379 210 q 394 261 393 248 q 397 292 396 274 q 387 353 397 326 q 356 401 376 381 q 308 431 336 420 q 244 442 279 442 q 160 424 199 442 q 90 371 120 406 q 56 315 68 345 q 42 252 44 285 q 46 183 39 218 q 71 113 54 148 q 124 49 89 75 q 204 7 160 23 q 297 -17 248 -9 q 389 -24 345 -24 q 481 -17 437 -24 q 560 3 524 -11 q 621 35 594 15 q 667 78 647 55 q 701 126 687 102 q 724 173 715 151 q 751 263 743 218 q 761 352 760 309 q 756 430 762 394 q 738 491 749 466 q 704 487 721 488 q 668 486 686 486 q 661 494 661 487 q 663 499 661 497 q 668 502 665 502 q 820 529 757 503 q 920 603 883 555 z "},"K":{"ha":951,"x_min":25,"x_max":939,"o":"m 882 323 q 928 208 916 266 q 926 97 939 150 q 899 41 916 67 q 859 -4 882 15 q 806 -34 836 -23 q 744 -45 777 -45 q 640 -18 692 -45 q 547 58 588 9 q 503 117 522 88 q 472 177 485 146 q 449 238 458 207 q 433 302 440 269 q 419 230 429 269 q 395 154 410 192 q 360 81 380 116 q 317 19 341 45 q 216 -33 268 -33 q 119 6 156 -33 q 48 162 72 54 q 26 443 25 270 q 32 546 26 492 q 49 654 37 601 q 79 755 61 707 q 121 839 96 803 q 176 897 145 876 q 243 919 206 919 q 303 906 272 919 q 360 862 334 892 q 407 784 387 832 q 434 666 427 736 q 481 752 450 707 q 552 836 511 798 q 642 900 593 874 q 745 925 691 925 q 825 898 790 925 q 878 828 859 871 q 879 722 896 776 q 811 622 862 667 q 719 558 772 585 q 606 521 665 532 q 675 497 639 512 q 748 458 711 481 q 819 401 785 435 q 882 323 854 368 m 909 102 q 911 206 922 151 q 867 315 900 262 q 794 402 835 367 q 710 461 753 438 q 628 497 668 484 q 559 515 589 509 q 553 524 553 516 q 561 531 554 531 q 609 538 581 532 q 671 556 638 544 q 737 587 703 568 q 801 633 771 606 q 863 726 847 676 q 862 823 879 775 q 845 856 856 840 q 818 884 833 872 q 784 903 803 896 q 745 909 766 909 q 670 895 706 909 q 601 856 633 880 q 540 802 568 832 q 491 739 512 771 q 455 675 469 707 q 436 620 441 644 q 428 613 435 612 q 420 621 421 614 q 405 737 418 685 q 369 826 391 789 q 314 883 346 863 q 244 903 282 903 q 186 885 213 903 q 137 833 159 866 q 96 756 114 800 q 67 660 79 711 q 48 553 55 609 q 42 443 42 498 q 63 168 41 273 q 130 18 85 62 q 216 -16 164 -16 q 304 31 262 -16 q 356 106 333 61 q 394 199 378 151 q 416 295 409 248 q 419 378 422 342 q 421 384 418 381 q 427 387 423 387 q 435 380 435 387 q 451 294 443 335 q 473 216 460 254 q 507 142 487 178 q 557 68 527 105 q 647 -2 598 24 q 744 -28 696 -28 q 800 -19 773 -28 q 848 7 827 -10 q 885 48 869 24 q 909 102 901 72 z "},"L":{"ha":782,"x_min":25,"x_max":766,"o":"m 713 349 q 765 224 766 305 q 731 104 764 155 q 643 21 698 54 q 519 -28 589 -12 q 376 -44 450 -44 q 142 33 227 -43 q 36 260 58 108 q 31 305 33 276 q 27 371 28 334 q 25 451 25 408 q 28 541 26 495 q 38 633 31 587 q 55 722 44 680 q 83 800 66 764 q 121 863 99 836 q 188 911 149 894 q 271 928 226 928 q 313 923 292 928 q 355 911 334 919 q 428 860 397 892 q 477 782 458 827 q 503 682 496 737 q 503 563 509 627 q 496 522 500 545 q 487 476 492 500 q 473 428 481 452 q 456 382 465 404 q 566 392 515 392 q 652 381 614 392 q 713 349 689 371 m 376 -27 q 513 -12 446 -27 q 632 33 580 3 q 715 111 684 64 q 748 224 747 159 q 703 336 750 297 q 566 376 659 376 q 511 373 540 376 q 448 363 482 369 q 415 313 432 332 q 378 287 397 294 q 369 290 372 287 q 368 298 367 294 q 372 302 370 301 q 415 340 395 311 q 449 407 434 369 q 473 488 463 446 q 487 564 483 530 q 487 678 493 625 q 463 773 481 731 q 416 847 445 816 q 349 895 387 878 q 310 907 329 903 q 271 911 291 911 q 194 896 230 911 q 134 851 159 880 q 87 767 105 817 q 58 658 68 716 q 45 538 48 600 q 42 422 41 477 q 45 326 42 368 q 52 262 49 283 q 152 44 73 115 q 376 -27 231 -26 z "},"M":{"ha":1085,"x_min":31,"x_max":1057,"o":"m 935 844 q 972 784 955 823 q 1003 697 989 746 q 1028 590 1017 648 q 1045 473 1038 533 q 1055 354 1052 413 q 1055 242 1057 295 q 1047 145 1053 189 q 1029 73 1040 102 q 1003 32 1020 52 q 966 -2 987 12 q 920 -25 945 -17 q 871 -34 896 -34 q 831 -30 852 -34 q 788 -16 810 -26 q 748 8 767 -7 q 715 45 729 23 q 676 119 691 83 q 652 186 661 155 q 640 243 644 218 q 635 287 637 269 q 618 253 629 271 q 596 221 608 235 q 568 197 583 207 q 536 188 553 188 q 510 196 523 188 q 487 218 498 205 q 467 247 476 231 q 452 277 458 262 q 446 234 450 259 q 433 179 442 209 q 410 115 425 149 q 374 45 395 81 q 340 8 359 23 q 300 -16 321 -7 q 258 -30 279 -26 q 218 -34 236 -34 q 170 -26 194 -34 q 124 -4 146 -18 q 85 30 102 10 q 59 73 68 50 q 41 145 47 102 q 33 242 35 189 q 34 354 31 295 q 43 473 37 413 q 60 590 50 533 q 85 697 71 648 q 116 784 99 746 q 153 844 133 823 q 183 872 165 859 q 223 895 201 885 q 269 910 245 905 q 318 916 293 916 q 402 898 362 916 q 475 847 441 880 q 517 789 500 821 q 543 723 535 758 q 571 789 553 758 q 614 847 589 821 q 686 898 646 880 q 770 916 726 916 q 812 911 789 916 q 858 897 836 906 q 901 874 881 887 q 935 844 921 861 m 1014 79 q 1031 149 1025 106 q 1039 243 1037 191 q 1038 353 1040 295 q 1029 470 1036 411 q 1013 585 1023 528 q 989 690 1002 642 q 959 775 975 738 q 922 833 942 813 l 916 840 q 907 848 912 844 q 770 900 839 900 q 692 883 730 900 q 625 836 655 866 q 573 758 592 802 q 553 666 554 715 q 551 656 551 661 q 543 652 551 652 q 536 661 536 652 q 517 753 537 707 q 463 836 498 799 q 396 883 433 866 q 318 900 359 900 q 277 896 298 900 q 236 883 256 891 q 198 862 216 874 q 166 833 180 849 q 130 775 146 813 q 100 690 113 738 q 76 585 86 642 q 59 470 66 528 q 50 353 53 411 q 49 243 47 295 q 57 149 51 191 q 74 79 63 106 q 96 45 81 62 q 129 14 111 28 q 169 -8 147 0 q 212 -17 191 -17 q 298 2 259 -17 q 359 56 338 22 q 408 152 391 105 q 430 236 424 199 q 436 300 437 274 q 435 334 436 326 q 444 343 435 342 q 449 341 447 343 q 452 336 452 340 q 467 291 457 314 q 488 248 476 267 q 512 216 499 229 q 536 204 524 204 q 571 219 555 204 q 601 255 588 234 q 622 300 613 277 q 636 339 631 323 q 644 343 638 343 q 652 334 652 342 q 651 300 652 326 q 658 236 651 274 q 681 152 665 199 q 729 56 697 105 q 790 2 751 22 q 876 -17 829 -17 q 918 -9 897 -17 q 957 11 939 -2 q 991 42 976 24 q 1014 79 1006 60 z "},"N":{"ha":922,"x_min":29,"x_max":908,"o":"m 907 497 q 904 368 908 432 q 894 249 901 304 q 879 153 888 194 q 862 92 871 111 q 836 45 852 69 q 798 3 819 22 q 750 -28 777 -16 q 694 -41 724 -41 q 672 -39 683 -41 q 650 -33 662 -37 q 595 -2 619 -23 q 551 47 570 19 q 516 107 532 75 q 488 173 500 140 q 483 114 488 142 q 467 62 478 86 q 393 -15 443 13 q 278 -45 344 -43 q 217 -38 246 -45 q 162 -17 187 -31 q 117 14 136 -4 q 85 54 97 32 q 54 156 66 92 q 35 297 41 220 q 31 457 29 374 q 41 615 32 540 q 66 751 50 690 q 107 843 83 811 q 174 901 137 882 q 254 921 212 921 q 319 910 287 921 q 379 878 351 899 q 434 818 407 857 q 488 718 461 779 q 529 836 498 786 q 606 911 559 885 q 648 927 626 922 q 694 932 671 932 q 783 908 743 932 q 844 842 821 887 q 881 741 867 798 q 901 620 895 684 q 907 497 906 556 m 846 98 q 864 159 855 118 q 879 253 873 199 q 889 371 886 307 q 892 499 893 434 q 885 627 891 564 q 864 744 878 690 q 829 836 850 797 q 775 894 807 876 q 736 910 758 905 q 694 916 715 916 q 614 897 652 916 q 536 817 566 870 q 501 688 507 763 q 535 600 519 645 q 565 515 551 555 q 591 441 578 475 q 614 385 603 408 q 615 378 616 382 q 611 374 614 375 q 604 373 608 372 q 600 377 601 374 q 575 435 588 401 q 549 512 563 470 q 519 597 535 553 q 485 684 503 641 q 427 799 455 754 q 370 865 398 843 q 314 895 343 884 q 254 905 284 905 q 181 886 215 905 q 120 833 147 868 q 89 771 102 810 q 67 682 76 732 q 54 573 58 631 q 48 455 49 515 q 50 336 47 395 q 59 225 53 277 q 76 131 66 173 q 100 62 87 88 q 129 25 111 41 q 170 -4 147 8 q 220 -22 193 -16 q 277 -28 248 -28 q 328 -23 302 -28 q 377 -5 353 -17 q 420 26 400 7 q 452 70 439 44 q 463 240 484 140 q 448 285 456 262 q 432 334 441 309 q 411 399 422 366 q 388 466 399 433 q 366 527 377 498 q 343 581 354 557 q 349 591 341 587 l 354 591 q 358 587 357 591 q 381 534 369 564 q 404 472 393 504 q 427 406 416 439 q 448 340 438 372 q 471 270 460 303 q 492 211 481 237 q 516 148 502 183 q 549 80 530 113 q 595 20 569 47 q 656 -18 621 -7 q 675 -23 665 -21 q 694 -24 684 -24 q 745 -13 722 -24 q 788 16 769 -2 q 822 56 808 34 q 846 98 837 77 z "},"O":{"ha":846,"x_min":25,"x_max":830,"o":"m 515 918 q 624 883 576 909 q 710 819 673 857 q 772 731 747 780 q 811 626 797 682 q 827 512 825 571 q 823 393 830 452 q 800 299 817 349 q 756 201 783 250 q 693 107 730 152 q 611 29 656 63 q 510 -25 565 -5 q 392 -45 455 -45 q 274 -28 334 -45 q 175 24 217 -11 q 103 104 133 58 q 57 205 74 151 q 32 316 39 259 q 27 428 25 372 q 40 531 30 483 q 91 674 55 604 q 181 800 127 745 q 305 889 235 855 q 458 923 375 923 q 515 918 486 923 m 806 395 q 811 510 814 452 q 796 620 809 567 q 759 721 783 673 q 700 806 734 768 q 618 868 665 844 q 513 902 571 893 q 486 906 499 904 q 458 907 472 907 q 311 874 378 907 q 192 788 243 842 q 105 666 140 734 q 56 528 71 598 q 44 428 46 481 q 48 320 41 374 q 72 213 55 265 q 116 116 88 160 q 184 38 144 71 q 279 -12 224 4 q 392 -28 336 -28 q 505 -9 452 -28 q 602 43 558 11 q 682 119 646 76 q 743 210 717 163 q 784 304 768 256 q 806 395 800 353 m 431 510 q 450 504 441 510 q 466 489 459 498 q 476 469 472 480 q 479 450 479 458 q 465 416 479 430 q 431 403 451 403 q 397 416 411 403 q 383 450 383 430 q 387 469 383 458 q 397 489 391 480 q 412 504 403 498 q 431 510 420 510 m 431 420 q 453 429 444 420 q 463 450 463 437 q 460 464 463 456 q 453 478 457 472 q 443 489 448 485 q 431 493 437 493 q 420 489 425 493 q 410 478 414 485 q 403 464 406 472 q 400 450 400 456 q 409 429 400 437 q 431 420 418 420 z "},"P":{"ha":779,"x_min":25,"x_max":762,"o":"m 701 793 q 748 692 733 748 q 759 579 762 637 q 734 468 755 522 q 675 372 713 414 q 592 310 639 331 q 492 289 546 289 q 471 290 481 289 q 450 292 461 290 q 468 244 463 270 q 472 193 473 218 q 468 146 472 168 q 462 111 465 124 q 410 21 450 60 q 310 -37 370 -18 q 268 -47 289 -43 q 227 -50 248 -50 q 154 -38 188 -50 q 94 -4 119 -26 q 62 53 75 13 q 40 148 48 93 q 28 268 32 202 q 26 401 25 333 q 33 538 28 470 q 48 665 39 606 q 71 770 58 724 q 100 843 84 817 q 148 886 117 869 q 215 913 179 903 q 289 926 252 923 q 355 930 326 930 q 449 923 400 930 q 545 899 498 916 q 633 857 592 883 q 701 793 673 831 m 664 382 q 720 474 700 422 q 742 581 739 526 q 732 688 745 635 q 687 784 718 741 q 622 845 661 820 q 538 885 583 869 q 446 907 494 900 q 355 913 398 913 q 296 910 331 913 q 225 898 260 907 q 159 873 190 888 q 114 833 129 858 q 86 764 98 809 q 64 662 73 720 q 50 538 55 604 q 43 405 44 472 q 44 273 41 337 q 54 155 47 209 q 74 63 62 102 q 105 8 87 24 q 159 -22 128 -12 q 227 -33 191 -33 q 305 -22 265 -33 q 397 33 360 -4 q 446 115 435 69 q 453 152 449 130 q 456 200 456 175 q 450 251 456 226 q 427 296 444 277 q 369 314 398 302 q 309 343 339 326 q 306 355 304 350 q 317 358 308 359 q 406 319 363 332 q 492 305 450 305 q 586 325 543 305 q 664 382 629 344 m 422 637 q 486 600 461 637 q 488 593 488 597 q 484 588 488 589 q 478 587 481 587 q 473 591 475 587 q 422 621 452 621 q 394 611 408 620 q 372 587 381 603 q 361 584 370 581 q 357 595 354 589 q 386 626 369 614 q 422 637 404 637 z "},"Q":{"ha":873,"x_min":20,"x_max":850,"o":"m 694 79 q 739 60 718 71 q 777 35 760 49 q 804 5 793 21 q 819 -28 815 -12 q 821 -51 821 -39 q 816 -77 821 -63 q 801 -105 812 -90 q 771 -136 790 -120 q 723 -164 747 -154 q 674 -174 698 -174 q 624 -162 647 -174 q 584 -129 601 -150 q 557 -78 567 -107 q 547 -15 547 -49 q 483 -37 516 -29 q 412 -44 449 -44 q 261 -15 330 -44 q 140 72 192 14 q 84 154 108 108 q 45 252 60 200 q 25 362 31 304 q 26 478 20 419 q 52 596 33 540 q 100 702 71 653 q 168 791 129 751 q 251 860 206 831 q 348 906 296 889 q 453 924 399 922 q 602 899 536 924 q 717 823 667 873 q 816 661 782 757 q 850 448 850 564 q 831 304 850 367 q 787 195 812 241 q 735 120 762 149 q 694 79 709 92 m 760 -123 q 804 -32 814 -80 q 788 0 800 -16 q 760 28 777 15 q 721 52 743 41 q 675 67 699 62 q 668 74 670 68 q 672 82 666 79 l 684 92 q 714 121 696 102 q 753 171 732 141 q 792 242 774 201 q 822 334 810 283 q 833 448 833 385 q 801 655 833 562 q 705 811 768 747 q 595 883 657 859 q 454 908 534 908 q 304 871 375 905 q 178 779 233 837 q 88 644 123 721 q 44 477 52 566 q 42 363 38 419 q 61 257 47 308 q 98 162 75 206 q 153 83 121 118 q 268 0 202 28 q 412 -28 333 -28 q 500 -16 456 -28 q 582 24 543 -3 q 587 26 584 26 q 592 23 590 25 q 594 18 594 21 q 592 12 595 15 l 564 -18 q 572 -73 564 -47 q 596 -118 581 -99 q 631 -147 611 -136 q 674 -157 651 -157 q 760 -123 718 -157 m 450 510 q 469 504 460 510 q 485 489 478 498 q 495 470 491 480 q 498 450 498 459 q 484 416 498 430 q 450 401 470 401 q 416 416 430 401 q 401 450 401 430 q 405 470 401 459 q 415 489 409 480 q 431 504 422 498 q 450 510 439 510 m 450 418 q 473 427 463 418 q 482 450 482 437 q 479 465 482 457 q 472 479 477 473 q 461 490 467 486 q 450 494 456 494 q 438 490 444 494 q 428 479 432 486 q 421 465 424 473 q 418 450 418 457 q 428 427 418 437 q 450 418 437 418 z "},"R":{"ha":861,"x_min":23,"x_max":846,"o":"m 838 149 q 832 70 846 106 q 785 6 818 33 q 725 -27 759 -16 q 654 -39 691 -39 q 588 -26 618 -39 q 529 9 555 -14 q 481 60 503 32 q 444 117 460 87 q 415 173 428 147 q 417 76 422 115 q 393 16 412 37 q 361 -9 381 3 q 317 -28 342 -20 q 264 -41 292 -37 q 209 -46 237 -46 q 164 -43 185 -46 q 128 -33 144 -40 q 84 5 104 -22 q 52 79 65 33 q 30 203 37 133 q 23 350 23 274 q 28 500 23 426 q 42 637 34 575 q 61 744 51 700 q 81 801 71 787 q 133 852 101 829 q 206 891 165 875 q 295 916 247 907 q 395 924 343 924 q 493 916 446 924 q 581 892 541 908 q 692 826 645 869 q 762 730 739 784 q 780 635 781 684 q 758 538 779 587 q 733 500 749 520 q 693 463 716 481 q 640 431 669 446 q 578 408 611 416 q 621 391 596 401 q 672 367 645 381 q 725 332 699 352 q 774 286 751 313 q 814 225 797 259 q 838 149 831 191 m 774 18 q 816 76 804 43 q 822 146 829 109 q 779 252 811 209 q 706 325 747 296 q 621 373 665 355 q 545 404 578 391 q 530 402 537 403 q 516 402 524 402 q 406 425 460 402 q 403 436 400 430 q 414 440 406 441 q 517 418 463 418 q 595 431 558 418 q 662 461 633 443 q 712 503 692 480 q 742 545 733 525 q 763 636 762 590 q 746 724 764 682 q 680 815 724 775 q 576 878 636 854 q 492 900 538 892 q 397 907 446 907 q 299 899 346 907 q 214 876 253 891 q 144 840 175 861 q 94 791 113 818 q 81 757 88 783 q 68 692 75 731 q 55 605 61 654 q 46 502 50 556 q 40 391 42 448 q 41 279 39 334 q 50 175 43 224 q 68 84 56 125 q 134 -18 92 -1 q 168 -26 149 -23 q 208 -30 186 -30 q 261 -26 235 -30 q 311 -14 288 -22 q 352 4 334 -6 q 381 27 370 15 q 399 65 394 42 q 404 114 404 89 q 400 162 404 139 q 394 201 397 186 q 392 217 393 213 q 392 223 392 221 q 398 230 393 230 q 404 229 402 230 q 407 226 406 227 q 413 214 410 220 q 420 201 416 208 q 451 139 434 171 q 489 77 468 106 q 536 25 510 48 q 594 -12 562 1 q 654 -22 622 -22 q 719 -12 688 -22 q 774 18 750 -1 m 418 650 q 386 640 401 649 q 360 615 371 631 q 355 611 358 611 q 349 613 352 611 q 346 618 347 615 q 347 624 345 621 q 378 654 359 644 q 418 666 397 665 q 490 628 461 666 q 490 622 491 625 q 486 616 489 618 q 481 614 484 614 q 476 618 478 614 q 418 650 452 650 z "},"S":{"ha":785,"x_min":24,"x_max":772,"o":"m 762 313 q 761 222 772 268 q 715 132 749 176 q 648 61 686 93 q 566 5 610 28 q 472 -31 522 -18 q 373 -44 423 -44 q 277 -33 327 -44 q 183 0 228 -22 q 102 55 138 22 q 47 130 66 87 q 26 224 27 177 q 42 315 24 271 q 85 385 58 353 q 149 438 113 416 q 127 462 138 448 q 107 494 117 476 q 92 533 98 512 q 84 578 86 555 q 84 624 82 599 q 95 677 85 648 q 122 736 104 705 q 172 799 141 767 q 233 849 199 827 q 303 887 267 871 q 378 911 340 903 q 455 920 417 920 q 541 910 496 920 q 626 881 585 901 q 697 830 666 861 q 745 754 729 798 q 757 687 756 721 q 752 622 758 652 q 735 567 746 591 q 711 528 724 542 q 617 492 677 492 q 551 502 583 492 q 497 522 519 511 q 482 531 490 526 q 467 543 474 536 q 456 555 460 549 q 454 568 452 562 q 453 598 458 585 q 441 619 448 612 q 428 628 435 624 q 413 629 420 631 q 401 621 407 627 q 391 605 395 614 q 410 554 385 579 q 428 543 416 549 q 455 532 439 537 q 487 520 470 526 q 522 509 505 515 q 603 480 564 497 q 675 438 642 463 q 730 384 707 414 q 762 313 753 353 m 702 142 q 744 225 733 183 q 746 309 755 268 q 715 377 737 347 q 662 428 693 406 q 594 466 631 450 q 518 494 557 481 q 480 506 498 500 q 446 517 461 511 q 418 530 430 524 q 399 543 406 536 q 375 582 377 564 q 376 609 373 600 q 390 633 380 625 q 410 645 400 642 q 432 643 421 648 q 452 631 443 639 q 470 601 465 618 q 471 566 475 583 q 477 556 471 564 q 505 537 483 549 q 560 516 530 524 q 616 509 589 509 q 699 540 671 509 q 719 571 709 550 q 736 621 730 593 q 742 683 742 650 q 729 749 741 715 q 685 818 715 789 q 618 866 656 847 q 538 895 581 886 q 455 904 496 904 q 381 896 418 904 q 309 872 345 888 q 242 836 274 857 q 183 787 210 814 q 137 728 154 758 q 111 673 119 699 q 100 623 102 646 q 100 581 98 600 q 110 533 102 555 q 127 493 117 511 q 150 461 138 475 q 174 439 162 447 q 210 417 190 427 l 248 398 q 295 374 273 387 q 340 343 318 361 q 356 318 352 330 q 360 297 360 307 q 356 282 359 288 q 351 273 353 275 q 338 262 346 267 q 322 255 331 258 q 305 254 314 253 q 289 259 296 254 q 279 268 285 262 q 271 286 273 274 q 270 316 268 298 q 282 362 272 334 q 262 373 273 368 q 241 383 252 378 q 224 392 235 386 q 201 405 214 398 q 178 418 189 412 q 163 427 168 425 q 100 378 128 408 q 57 311 73 349 q 41 229 41 273 q 63 136 41 184 q 115 65 81 96 q 191 14 149 35 q 281 -17 234 -6 q 373 -27 329 -27 q 465 -16 419 -27 q 554 18 511 -4 q 634 71 597 40 q 702 142 672 102 m 297 355 q 286 301 286 323 q 298 273 286 280 q 319 271 307 267 q 337 283 330 274 q 343 305 345 293 q 328 331 340 317 q 314 343 322 336 q 297 355 307 349 z "},"T":{"ha":876,"x_min":25,"x_max":856,"o":"m 853 675 q 854 631 856 654 q 846 583 852 607 q 826 535 839 558 q 793 492 814 511 q 647 438 741 441 q 679 351 669 405 q 685 227 689 296 q 666 133 682 179 q 623 50 650 86 q 561 -9 597 13 q 480 -32 524 -32 l 399 -32 q 320 -14 355 -32 q 258 37 284 3 q 216 118 232 71 q 196 227 200 166 q 201 351 191 296 q 234 438 212 405 q 87 492 140 441 q 54 535 66 511 q 34 583 41 558 q 26 631 28 607 q 28 675 25 654 q 40 736 32 706 q 66 794 49 767 q 112 846 83 822 q 182 887 140 869 q 285 915 225 905 q 425 924 345 924 l 456 924 q 596 915 536 924 q 699 887 656 905 q 769 846 741 869 q 814 794 797 822 q 840 736 831 767 q 853 675 849 706 m 668 228 q 662 354 672 300 q 627 438 651 409 q 594 440 611 439 q 560 446 578 442 q 553 454 553 446 q 556 460 554 457 q 564 461 559 463 q 602 455 583 457 q 637 454 620 454 q 782 503 729 454 q 813 543 801 522 q 831 588 825 565 q 838 632 837 610 q 837 672 839 654 q 825 730 833 701 q 800 785 817 759 q 756 834 783 811 q 689 873 730 857 q 590 899 648 889 q 456 908 533 908 l 425 908 q 291 899 348 908 q 192 873 233 889 q 124 834 151 857 q 81 785 98 811 q 56 730 64 759 q 44 672 47 701 q 43 632 42 654 q 50 588 44 610 q 67 543 56 565 q 98 503 79 522 q 243 454 152 454 q 279 455 261 454 q 317 461 298 457 q 328 454 326 462 q 319 446 328 446 q 286 440 303 442 q 254 438 269 439 q 219 354 229 409 q 213 228 208 300 q 218 184 214 210 q 229 132 221 159 q 250 79 237 105 q 283 31 263 52 q 332 -3 303 10 q 399 -16 361 -16 l 480 -16 q 554 6 521 -16 q 612 61 587 27 q 651 139 636 96 q 668 228 665 183 z "},"U":{"ha":857,"x_min":26,"x_max":837,"o":"m 739 882 q 786 812 766 854 q 818 716 806 769 q 833 602 830 663 q 830 474 837 541 q 804 340 823 408 q 755 205 786 271 q 693 102 729 147 q 616 27 658 58 q 526 -20 574 -4 q 425 -37 477 -37 q 243 6 319 -37 q 114 138 167 50 q 66 249 85 187 q 36 379 46 311 q 27 517 26 447 q 40 652 28 587 q 77 774 52 718 q 138 870 101 830 q 191 910 162 897 q 249 924 219 924 q 339 886 300 924 q 396 779 378 847 q 406 713 404 751 q 410 634 409 675 q 412 590 411 614 q 416 544 414 566 q 422 507 418 522 q 431 492 426 492 q 435 503 433 494 q 438 525 437 512 q 440 551 439 537 q 441 576 441 564 q 445 638 443 605 q 453 705 448 671 q 467 772 458 739 q 491 832 476 804 q 553 904 515 878 q 635 930 591 930 q 690 918 664 930 q 739 882 717 906 m 741 212 q 788 344 770 277 q 813 475 806 410 q 818 599 821 539 q 804 710 815 659 q 773 803 792 762 q 728 871 753 844 q 635 913 686 913 q 563 890 597 913 q 505 824 528 866 q 483 767 491 798 q 469 702 474 735 q 461 636 464 669 q 458 575 459 604 q 451 500 455 525 q 432 475 448 475 q 414 486 420 475 q 404 518 408 497 q 397 568 399 538 q 394 633 395 597 q 390 711 392 673 q 381 774 387 749 q 329 872 363 837 q 249 907 295 907 q 150 859 196 907 q 90 766 114 821 q 55 647 66 711 q 43 515 43 584 q 53 381 43 447 q 82 254 62 315 q 129 146 101 194 q 251 21 178 62 q 425 -20 324 -20 q 521 -5 475 -20 q 607 41 567 11 q 681 114 648 71 q 741 212 715 157 z "},"V":{"ha":949,"x_min":19,"x_max":930,"o":"m 889 861 q 924 760 919 819 q 909 638 930 701 q 867 530 892 587 q 809 416 841 473 q 740 302 777 358 q 665 195 703 245 q 587 100 626 144 q 511 25 548 57 q 440 -24 474 -6 q 380 -42 407 -42 q 332 -23 357 -42 q 282 28 307 -4 q 231 101 256 60 q 183 188 206 143 q 139 278 159 233 q 102 363 119 323 q 74 433 85 402 q 58 478 62 463 q 23 686 19 593 q 71 842 26 779 q 137 899 98 879 q 220 920 176 920 q 264 915 243 920 q 306 899 286 910 q 438 500 446 829 q 456 575 446 535 q 480 655 467 614 q 510 735 493 696 q 547 807 527 774 q 592 864 568 840 q 644 900 616 888 q 755 925 704 925 q 832 909 798 925 q 889 861 867 892 m 894 643 q 908 757 913 703 q 876 850 903 812 q 824 893 855 879 q 755 907 793 907 q 704 902 730 907 q 650 885 678 897 q 595 845 620 873 q 550 779 570 817 q 512 698 529 742 q 483 610 496 654 q 461 524 470 566 q 446 451 452 483 q 437 400 439 419 q 434 380 434 380 q 426 371 434 373 q 417 376 420 371 q 417 395 417 386 q 418 418 418 405 q 421 489 420 448 q 421 575 423 530 q 414 669 420 621 q 394 758 408 716 q 357 833 380 800 q 298 884 334 866 q 261 899 281 895 q 220 904 241 904 q 145 885 180 904 q 84 832 110 867 q 39 684 43 774 q 73 483 36 594 q 92 430 80 463 q 121 358 104 397 q 158 274 138 318 q 201 188 178 231 q 247 107 223 146 q 293 38 270 68 q 338 -8 316 9 q 380 -26 360 -26 q 434 -9 404 -26 q 500 38 465 8 q 573 110 535 68 q 649 201 611 151 q 723 305 686 250 q 791 417 760 360 q 850 531 823 474 q 894 643 876 589 z "},"W":{"ha":1074,"x_min":22,"x_max":1058,"o":"m 996 858 q 1020 827 1008 845 q 1040 783 1031 808 q 1054 725 1049 758 q 1055 651 1058 692 q 1049 588 1053 629 q 1036 494 1044 547 q 1015 380 1027 441 q 984 260 1002 320 q 942 145 966 201 q 886 48 918 90 q 815 -19 854 6 q 728 -44 776 -44 q 666 -34 693 -44 q 618 -7 640 -24 q 582 30 597 9 q 556 71 567 50 q 539 111 546 92 q 528 142 532 130 q 519 107 526 127 q 500 67 512 87 q 472 26 489 46 q 433 -10 455 5 q 382 -36 410 -26 q 319 -45 353 -45 q 255 -37 290 -45 q 192 -1 220 -28 q 143 67 165 26 q 106 159 122 108 q 78 266 90 210 q 57 380 66 322 q 40 493 48 438 q 36 518 39 506 q 32 541 34 530 q 25 656 22 606 q 37 744 27 706 q 61 809 46 782 q 91 854 76 836 q 157 905 121 887 q 236 922 194 922 q 302 911 269 922 q 358 870 335 899 q 395 805 380 842 q 418 725 410 768 q 432 640 427 682 q 442 673 435 656 q 459 704 449 690 q 485 727 470 718 q 519 736 500 736 q 558 725 543 736 q 584 694 574 713 q 598 654 593 676 q 604 613 603 633 q 622 684 612 648 q 646 753 631 719 q 680 818 660 787 q 728 878 700 850 q 780 911 749 900 q 846 923 811 923 q 928 906 889 923 q 996 858 967 889 m 1038 653 q 1030 763 1044 713 q 983 847 1016 812 q 921 891 956 876 q 846 907 886 907 q 786 897 814 907 q 740 867 759 886 q 687 798 708 835 q 652 721 666 762 q 628 637 637 680 q 609 548 618 593 q 605 529 606 536 q 602 515 603 522 q 598 509 601 511 q 593 508 595 507 q 588 511 590 509 q 585 518 585 514 q 590 558 588 533 q 589 609 591 583 q 580 661 587 636 q 560 702 573 686 q 519 720 544 720 q 475 700 494 720 q 454 661 462 684 q 444 611 447 637 q 441 563 441 586 q 445 525 442 540 q 443 519 445 522 q 438 516 441 517 q 432 516 435 515 q 429 522 429 517 q 425 544 427 530 q 422 576 424 558 l 422 576 q 416 632 420 602 q 407 695 413 663 q 393 760 401 728 q 371 819 384 791 q 339 866 357 846 q 296 895 321 886 q 236 907 265 907 q 164 890 197 907 q 104 844 130 874 q 76 801 90 827 q 53 739 62 775 q 41 654 43 703 q 48 545 39 606 q 52 520 50 532 q 56 496 54 509 q 73 390 64 446 q 93 279 81 334 q 120 174 104 224 q 155 82 135 123 q 201 14 175 42 q 260 -22 227 -14 q 290 -27 275 -25 q 319 -29 304 -29 q 377 -20 351 -29 q 425 4 404 -11 q 461 39 446 20 q 488 77 477 58 q 504 115 498 96 q 512 147 510 134 q 516 170 513 161 q 526 178 518 178 q 534 172 532 178 q 543 150 537 165 q 553 119 547 137 q 570 80 560 100 q 594 41 580 60 q 627 6 608 22 q 671 -18 646 -9 q 728 -28 696 -28 q 810 -3 773 -28 q 876 62 846 21 q 929 158 906 104 q 970 270 952 212 q 1000 388 987 328 q 1020 499 1012 447 q 1032 591 1027 551 q 1038 653 1036 631 z "},"X":{"ha":920,"x_min":20,"x_max":904,"o":"m 857 897 q 899 805 894 859 q 879 688 904 752 q 801 553 854 625 q 666 404 747 481 q 711 346 688 378 q 756 278 735 313 q 794 205 778 242 q 816 132 810 168 q 816 64 823 96 q 786 5 810 31 q 738 -29 766 -17 q 677 -41 709 -41 q 631 -35 658 -41 q 572 -6 604 -28 q 508 55 541 15 q 443 159 474 94 q 414 122 433 142 q 370 80 395 101 q 317 39 346 59 q 259 3 289 19 q 199 -22 229 -12 q 142 -31 170 -31 q 70 -11 96 -28 q 33 39 44 7 q 31 128 20 77 q 66 233 41 179 q 129 338 92 287 q 208 428 166 389 q 126 528 159 475 q 77 632 94 581 q 58 729 60 684 q 71 809 57 775 q 92 848 79 829 q 125 883 106 867 q 167 908 144 899 q 216 918 190 918 q 263 910 237 918 q 320 878 290 901 q 383 814 350 855 q 451 709 416 774 q 519 795 479 755 q 601 867 558 836 q 688 915 644 897 q 770 932 732 932 q 857 897 824 932 m 774 16 q 800 70 795 39 q 799 134 806 100 q 777 203 793 168 q 741 272 762 238 q 698 336 721 306 q 654 392 675 367 q 636 376 646 385 q 615 359 625 367 q 594 343 604 351 q 578 332 585 336 q 571 332 574 331 q 567 335 568 333 q 565 340 565 337 q 569 346 566 343 q 588 360 575 349 q 614 381 601 370 q 638 402 628 393 q 650 411 649 411 q 796 574 744 499 q 868 708 848 648 q 880 813 888 768 q 846 886 872 857 q 770 916 818 916 q 689 898 732 916 q 603 848 646 880 q 522 776 560 817 q 457 688 484 734 q 450 684 456 686 q 443 688 446 684 q 377 797 409 755 q 316 862 345 838 q 261 893 287 885 q 216 902 236 902 q 172 893 193 902 q 135 870 151 884 q 105 838 118 856 q 85 802 93 821 q 74 727 73 770 q 93 634 76 683 q 141 534 109 585 q 221 438 173 484 q 254 465 236 451 q 284 486 272 478 q 290 487 288 487 q 295 484 292 488 q 293 472 300 479 q 272 458 284 467 q 249 440 260 450 q 227 422 237 431 q 211 406 216 413 q 161 352 185 382 q 116 289 136 321 q 79 222 95 256 q 54 156 63 189 q 43 95 45 124 q 49 43 41 66 q 80 2 58 16 q 144 -15 102 -12 q 202 -4 171 -15 q 263 24 233 7 q 322 62 294 41 q 374 106 351 84 q 414 147 397 127 q 436 180 430 167 q 443 186 438 186 q 451 181 448 186 q 514 74 481 114 q 576 11 546 33 q 632 -18 606 -11 q 677 -25 659 -25 q 731 -14 706 -25 q 774 16 756 -3 z "},"Y":{"ha":871,"x_min":20,"x_max":850,"o":"m 652 932 q 724 919 688 932 q 787 875 759 905 q 833 796 815 845 q 850 675 850 747 q 844 570 850 625 q 819 465 838 516 q 761 370 799 414 q 660 295 723 326 q 640 277 646 289 q 630 249 633 265 q 627 213 627 233 q 627 172 627 193 q 628 127 628 150 q 624 81 628 104 q 612 39 621 59 q 588 1 604 18 q 438 -45 543 -45 q 338 -27 374 -45 q 284 18 302 -10 q 261 80 266 45 q 254 148 256 114 q 251 189 252 169 q 244 226 249 209 q 231 257 239 243 q 207 280 222 271 q 66 418 111 336 q 26 603 20 500 l 26 604 q 35 704 30 656 q 54 793 40 752 q 94 866 68 835 q 164 916 119 898 q 195 925 178 922 q 232 927 212 927 q 298 919 265 927 q 359 892 332 910 q 406 847 387 874 q 429 783 425 820 q 430 740 431 767 q 426 680 429 713 q 423 627 425 656 q 421 573 421 599 q 422 528 420 547 q 431 502 425 508 l 431 501 q 438 517 435 503 q 445 551 441 531 q 450 592 448 570 q 454 630 452 614 q 467 734 460 681 q 488 834 474 788 q 509 873 493 855 q 547 904 524 891 q 596 925 569 918 q 652 932 623 932 m 654 310 q 749 381 713 339 q 803 473 785 424 q 828 574 822 522 q 833 675 833 627 q 823 770 833 731 q 796 837 812 810 q 759 879 779 863 q 719 903 739 895 q 681 913 699 911 q 652 916 663 916 q 601 909 626 916 q 556 890 576 902 q 522 863 536 879 q 503 830 507 848 q 483 732 490 785 q 471 629 477 679 q 463 563 467 590 q 455 518 459 535 q 445 493 451 500 q 431 485 439 485 q 418 492 425 485 q 405 556 404 507 q 410 681 405 606 q 413 739 411 712 q 412 781 414 766 q 392 839 409 814 q 350 880 375 864 q 293 904 324 896 q 232 911 262 911 q 170 900 197 911 q 104 854 128 884 q 68 787 81 825 q 51 702 56 748 q 43 604 47 655 l 43 602 q 81 427 37 505 q 214 294 124 349 q 243 268 233 283 q 259 234 254 252 q 267 193 264 215 q 270 149 269 172 q 276 84 272 116 q 297 27 281 52 q 346 -13 313 3 q 438 -28 379 -28 q 522 -18 488 -28 q 576 14 556 -8 q 598 47 591 28 q 609 85 606 65 q 611 128 612 106 q 610 172 611 150 q 610 215 610 194 q 614 255 610 237 q 627 288 618 273 q 654 310 636 302 z "},"Z":{"ha":886,"x_min":23,"x_max":867,"o":"m 842 298 q 861 243 855 272 q 865 184 867 214 q 856 126 864 155 q 832 75 847 98 q 781 27 814 47 q 709 -7 749 7 q 625 -28 669 -20 q 540 -40 581 -36 q 465 -45 499 -44 q 411 -46 431 -46 q 327 -43 368 -46 q 252 -36 286 -41 q 191 -25 217 -32 q 150 -10 164 -18 q 97 25 123 4 q 53 76 71 46 q 29 145 35 106 q 36 234 23 184 q 75 304 45 273 q 144 360 105 335 q 226 403 183 385 q 304 436 269 422 q 263 433 284 433 q 223 432 243 432 q 160 435 187 432 q 124 442 132 437 q 53 522 79 469 q 25 645 26 575 q 31 714 24 680 q 49 777 37 748 q 78 827 61 805 q 117 863 96 850 q 172 889 139 878 q 246 909 205 901 q 333 922 286 918 q 429 926 379 926 q 525 922 475 926 q 621 907 574 917 q 708 880 668 897 q 772 840 747 864 q 825 768 808 807 q 844 689 842 729 q 835 610 846 649 q 805 539 824 572 q 751 478 785 508 q 665 417 717 448 q 773 378 727 410 q 842 298 819 347 m 819 83 q 840 132 833 106 q 849 185 848 158 q 845 239 850 212 q 828 291 840 267 q 758 368 804 339 q 650 403 712 397 q 609 387 630 396 q 567 368 588 378 q 525 347 545 357 q 485 329 504 337 q 424 302 452 315 q 376 277 395 289 q 370 276 373 275 q 365 279 367 277 q 363 286 363 282 q 367 291 363 289 q 416 316 388 303 q 478 345 445 330 q 568 386 522 364 q 658 433 615 408 q 735 487 701 458 q 790 548 770 515 q 818 614 808 578 q 826 687 828 650 q 809 761 825 724 q 761 828 793 797 q 708 862 741 847 q 632 887 675 877 q 538 903 589 897 q 429 908 486 908 q 335 904 380 908 q 250 892 290 900 q 179 874 211 885 q 125 850 146 863 q 90 817 105 838 q 64 769 75 796 q 47 711 53 743 q 42 646 42 679 q 66 530 43 581 q 132 456 90 479 q 162 450 138 452 q 222 448 186 448 q 254 448 235 448 q 294 451 272 449 q 340 457 316 453 q 387 467 363 460 q 484 525 463 488 q 489 528 486 528 q 495 528 492 529 q 499 524 498 526 q 498 517 500 521 q 391 451 474 473 q 357 439 374 446 q 318 423 340 433 q 269 404 296 414 q 214 379 241 393 q 160 350 186 366 q 112 316 134 334 q 74 276 90 298 q 52 231 58 255 q 46 148 40 184 q 68 84 52 112 q 109 37 85 56 q 158 3 133 17 q 198 -11 172 -4 q 258 -21 224 -17 q 332 -28 292 -26 q 415 -31 372 -31 q 467 -30 435 -31 q 539 -25 500 -29 q 621 -14 578 -21 q 701 6 663 -6 q 770 38 739 19 q 819 83 802 57 z "}," ":{"ha":340,"x_min":0,"x_max":0,"o":""},".":{"ha":391,"x_min":37,"x_max":359,"o":"m 332 220 q 353 186 347 205 q 359 146 359 167 q 353 103 359 125 q 338 62 347 81 q 316 25 328 42 q 292 -3 304 9 q 242 -31 272 -21 q 180 -41 213 -41 q 102 -23 135 -41 q 55 26 68 -5 q 37 98 37 64 q 46 146 37 124 q 67 186 55 168 q 93 216 79 203 q 116 237 106 229 q 217 271 161 271 q 242 270 229 271 q 271 262 256 268 q 301 247 286 256 q 332 220 316 237 m 279 12 q 301 37 290 22 q 321 69 313 52 q 336 106 330 87 q 342 144 342 125 q 318 208 342 179 q 265 243 294 233 q 217 254 237 254 q 170 246 193 254 q 127 224 146 238 q 103 202 115 214 q 80 174 91 190 q 63 139 70 158 q 56 98 56 120 q 60 68 56 85 q 70 36 63 52 q 113 -8 85 7 q 180 -23 142 -23 q 235 -14 209 -23 q 279 12 262 -5 z "},",":{"ha":327,"x_min":-8,"x_max":328,"o":"m 258 122 q 294 99 280 116 q 316 61 308 82 q 326 16 323 39 q 328 -25 328 -7 q 308 -93 323 -60 q 270 -158 292 -127 q 222 -217 248 -189 q 171 -271 196 -245 q 125 -314 148 -294 q 82 -348 102 -334 q 46 -370 62 -362 q 19 -378 29 -378 q 8 -376 12 -378 q -4 -360 -1 -372 q -8 -334 -8 -349 q -1 -281 -8 -312 q 17 -217 6 -251 q 41 -149 28 -184 q 68 -84 55 -115 q 92 -31 81 -54 q 109 4 102 -7 q 135 46 119 23 q 171 89 151 70 q 212 118 190 108 q 258 122 234 129 m 310 -25 q 310 11 311 -9 q 301 50 308 31 q 283 83 295 68 q 252 105 271 98 q 216 101 234 111 q 182 75 198 92 q 153 39 165 58 q 134 9 140 20 q 110 -35 123 -8 q 83 -94 97 -62 q 56 -160 69 -125 q 32 -226 43 -194 q 15 -287 22 -258 q 9 -335 9 -315 q 11 -350 9 -345 q 19 -359 12 -356 q 60 -342 33 -359 q 118 -297 87 -325 q 183 -233 150 -269 q 244 -160 217 -197 q 290 -87 272 -123 q 310 -25 309 -52 z "},"+":{"ha":707,"x_min":-3,"x_max":714,"o":"m 709 339 q 688 262 714 294 q 656 240 675 248 q 616 227 637 231 q 573 220 595 222 q 532 218 551 218 q 495 220 511 218 q 464 221 479 221 q 460 159 463 193 q 450 93 457 125 q 428 35 442 61 q 391 -1 414 9 q 334 -6 361 -13 q 286 24 307 1 q 261 62 271 40 q 244 109 250 85 q 235 157 237 133 q 236 200 233 181 q 209 195 224 197 q 178 194 193 194 q 150 196 169 194 q 108 203 130 197 q 63 219 85 209 q 25 246 41 229 q 5 321 -3 279 q 19 364 9 348 q 42 389 29 380 q 71 404 56 399 q 103 414 87 410 q 167 429 136 424 q 229 440 198 433 q 227 460 227 450 q 226 481 226 470 q 229 523 226 501 q 237 565 231 544 q 250 607 242 587 q 269 643 258 627 q 299 677 283 665 q 330 692 315 690 q 403 672 373 701 q 428 623 418 652 q 440 562 437 593 q 444 499 444 530 q 439 446 443 468 q 473 451 454 449 q 510 452 491 452 q 575 447 541 452 q 638 427 609 441 q 686 392 667 414 q 709 339 706 370 m 676 277 q 690 302 686 288 q 691 336 694 317 q 670 382 688 363 q 627 413 652 401 q 571 429 602 424 q 510 434 540 434 q 431 425 469 434 q 420 432 421 425 q 420 448 419 439 q 425 498 424 468 q 423 558 426 528 q 412 617 420 589 q 391 661 405 644 q 365 674 380 671 q 333 675 350 678 q 285 633 306 669 q 268 601 275 618 q 255 563 260 583 q 247 523 250 543 q 244 485 244 503 q 250 436 244 457 q 244 426 249 427 q 233 423 239 425 q 168 409 198 416 q 108 395 138 403 q 79 388 93 392 q 54 375 65 383 q 35 353 43 367 q 23 319 26 340 q 38 258 16 283 q 81 228 54 239 q 137 214 108 217 q 195 213 166 210 q 244 222 224 215 q 252 221 250 222 q 256 212 254 220 q 253 168 252 192 q 260 119 254 143 q 276 74 267 96 q 299 36 286 52 q 339 11 316 16 q 384 15 362 6 q 415 47 403 23 q 434 103 427 72 q 443 165 441 134 q 446 220 446 197 q 454 238 447 238 q 488 237 472 237 l 532 237 q 676 277 642 237 z "},"-":{"ha":707,"x_min":12,"x_max":706,"o":"m 692 334 q 698 286 706 311 q 653 248 690 267 q 561 215 616 229 q 438 192 506 201 q 302 183 371 183 q 211 187 255 183 q 130 199 168 191 q 92 210 111 203 q 57 229 73 218 q 28 254 40 240 q 13 286 16 269 q 16 306 12 296 q 28 326 20 317 q 78 361 45 344 q 157 393 111 379 q 260 415 203 407 q 380 424 317 424 q 465 418 423 424 q 547 403 507 412 q 593 390 570 397 q 634 375 615 383 q 669 356 654 366 q 692 334 684 346 m 680 294 q 682 309 683 301 q 676 325 681 317 q 643 349 665 338 q 594 369 622 360 q 536 385 567 378 q 477 396 506 392 q 422 403 448 401 q 380 406 397 406 q 261 397 317 406 q 161 376 205 389 q 86 347 117 363 q 42 315 55 331 q 31 288 29 302 q 47 262 35 273 q 73 241 58 250 q 103 226 87 232 q 132 216 119 220 q 214 205 170 210 q 302 200 257 200 q 436 209 371 200 q 554 231 502 218 q 640 261 606 245 q 680 293 674 277 l 680 294 z "},"!":{"ha":330,"x_min":31,"x_max":322,"o":"m 320 817 q 322 772 322 793 q 320 710 322 741 q 314 650 317 680 q 308 590 311 620 q 303 531 304 561 q 299 470 302 502 q 290 408 296 438 q 284 385 287 396 q 278 363 281 374 q 257 320 270 340 q 228 287 245 301 q 190 265 211 273 q 146 257 170 257 q 73 288 100 257 q 53 320 61 301 q 40 361 45 339 q 33 407 35 382 q 31 456 31 431 q 34 526 31 491 q 40 589 37 562 q 45 656 43 621 q 51 727 47 691 q 62 796 55 762 q 81 857 68 829 q 125 908 94 888 q 197 927 157 927 q 240 921 219 927 q 277 901 260 914 q 306 866 294 887 q 320 817 317 846 m 304 770 q 302 817 304 793 q 290 858 300 840 q 266 887 280 876 q 233 904 251 899 q 197 909 215 909 q 166 905 181 909 q 137 892 151 900 q 114 872 124 884 q 97 849 103 861 q 80 784 86 817 q 70 718 74 751 q 63 652 66 685 q 58 587 61 620 q 53 528 55 560 q 50 461 50 496 q 58 369 50 413 q 88 299 66 325 q 124 277 102 281 q 165 276 145 272 q 230 309 206 282 q 265 373 254 336 q 280 452 277 410 q 286 531 284 494 q 297 652 289 593 q 304 770 304 711 m 171 197 q 212 190 189 197 q 259 158 236 182 q 276 129 271 144 q 282 97 282 113 q 277 64 282 81 q 265 32 273 47 q 249 3 258 16 q 231 -19 240 -10 q 192 -42 214 -35 q 142 -50 169 -50 q 82 -35 108 -50 q 45 5 56 -20 q 32 61 32 33 q 38 99 32 82 q 54 131 45 117 q 74 155 64 144 q 92 171 84 165 q 171 197 125 197 m 216 -5 q 234 15 225 3 q 249 39 242 26 q 259 67 255 52 q 263 96 263 82 q 259 122 263 110 q 246 146 256 135 q 207 174 227 168 q 171 181 186 181 q 135 174 151 181 q 103 157 118 167 q 85 140 95 150 q 68 119 76 131 q 55 93 60 107 q 50 62 50 79 q 52 39 50 52 q 61 13 55 26 q 91 -20 69 -9 q 142 -32 113 -32 q 184 -25 164 -32 q 216 -5 205 -18 z "},"?":{"ha":663,"x_min":26,"x_max":606,"o":"m 581 814 q 604 731 603 771 q 592 654 606 691 q 552 582 578 616 q 494 516 526 548 q 425 455 461 484 q 353 398 388 425 q 262 325 302 359 q 208 261 222 292 q 189 236 198 242 q 172 230 179 230 q 141 252 152 230 q 128 310 130 275 q 134 387 126 345 q 162 468 142 429 q 185 501 169 481 q 222 539 202 522 q 169 539 195 537 q 115 551 142 541 q 65 584 85 562 q 38 633 45 605 q 32 718 26 677 q 58 792 37 758 q 115 854 79 827 q 199 901 151 882 q 272 921 235 914 q 349 928 310 928 q 492 898 431 928 q 581 814 553 867 m 342 411 q 412 466 376 437 q 479 525 447 494 q 536 588 511 555 q 574 656 561 621 q 587 729 588 692 q 566 807 586 767 q 483 883 541 856 q 346 911 425 911 q 205 886 273 911 q 126 842 159 868 q 73 785 92 817 q 48 715 54 753 q 54 637 43 677 q 65 610 58 621 q 82 590 73 598 q 102 575 92 581 q 121 565 112 569 q 186 553 153 554 q 252 562 218 552 q 332 610 296 576 q 384 692 367 643 q 393 762 398 727 q 390 774 391 768 q 388 786 389 781 q 390 794 388 791 q 399 798 392 798 q 408 765 405 795 q 409 726 410 746 q 400 686 407 707 q 346 601 382 637 q 258 547 309 564 q 236 529 248 540 q 212 506 224 518 q 191 481 200 494 q 177 460 181 469 q 151 385 158 422 q 144 316 143 347 q 153 266 145 286 q 172 247 161 247 q 184 255 179 247 q 193 268 190 263 q 250 336 209 301 q 342 411 290 371 m 200 201 q 242 193 218 201 q 290 160 266 185 q 311 116 308 141 q 307 67 313 92 q 287 21 300 43 q 259 -14 273 -1 q 221 -37 244 -28 q 172 -45 198 -45 q 111 -30 137 -45 q 74 9 85 -15 q 61 68 59 41 q 73 116 62 95 q 97 151 83 136 q 121 174 111 165 q 159 194 138 186 q 200 201 179 201 m 249 -1 q 273 29 261 10 q 291 69 285 47 q 295 112 297 90 q 278 149 293 133 q 237 178 258 171 q 200 184 216 184 q 164 179 182 184 q 132 161 146 173 q 108 139 121 153 q 87 107 95 125 q 77 66 79 89 q 88 17 76 44 q 120 -16 98 -4 q 172 -28 142 -28 q 215 -21 195 -28 q 249 -1 235 -14 z "},"'":{"ha":382,"x_min":47,"x_max":382,"o":"m 311 922 q 348 900 334 917 q 370 861 362 883 q 379 816 377 840 q 381 776 382 793 q 371 742 378 758 q 357 709 365 725 q 297 614 332 658 q 224 532 262 571 q 179 488 201 509 q 137 453 157 468 q 100 430 117 438 q 73 421 84 421 q 52 440 57 429 q 47 467 47 451 q 50 498 47 481 q 57 535 52 515 q 68 575 62 555 q 82 615 75 595 q 106 679 94 648 q 131 735 119 709 q 151 779 142 761 q 163 804 159 798 q 192 851 176 827 q 225 892 207 874 q 264 918 243 909 q 311 922 286 927 m 363 776 q 362 811 364 791 q 355 851 361 831 q 337 885 349 870 q 307 906 326 901 q 264 898 283 907 q 231 872 245 888 q 204 837 216 857 q 182 800 192 818 q 159 753 172 780 q 133 697 146 727 q 107 635 120 667 q 85 572 95 603 q 69 514 75 542 q 63 465 63 486 q 65 448 63 455 q 73 439 67 441 q 115 459 88 441 q 174 506 142 477 q 239 570 206 534 q 299 642 272 606 q 344 714 326 679 q 363 776 361 749 z "},":":{"ha":391,"x_min":37,"x_max":359,"o":"m 332 779 q 353 743 347 762 q 359 703 359 724 q 353 660 359 682 q 338 618 347 638 q 316 582 328 599 q 292 553 304 565 q 242 524 272 534 q 180 514 213 514 q 102 533 135 514 q 55 583 69 551 q 42 620 46 601 q 37 654 37 638 q 46 703 37 680 q 66 743 54 725 q 92 773 79 760 q 116 795 106 787 q 217 830 161 830 q 271 821 240 830 q 332 779 301 811 m 279 568 q 301 593 290 578 q 321 626 313 608 q 336 663 330 644 q 342 702 342 682 q 336 735 342 719 q 318 766 331 752 q 292 790 305 781 q 266 804 279 799 q 240 811 252 809 q 217 812 227 812 q 170 804 193 812 q 127 782 146 796 q 103 760 116 772 q 80 731 91 747 q 63 696 70 715 q 56 654 56 677 q 60 624 56 641 q 70 592 63 608 q 113 548 84 564 q 180 532 141 532 q 235 541 209 532 q 279 568 262 550 m 332 222 q 353 186 347 205 q 359 146 359 167 q 353 103 359 125 q 338 62 347 81 q 316 25 328 42 q 292 -4 304 8 q 242 -33 272 -23 q 180 -43 213 -43 q 102 -24 135 -43 q 55 26 69 -5 q 42 63 46 44 q 37 98 37 81 q 46 146 37 123 q 66 186 54 168 q 92 217 79 203 q 116 238 106 230 q 217 273 161 273 q 271 264 240 273 q 332 222 301 254 m 279 11 q 301 36 290 21 q 321 69 313 51 q 336 106 330 87 q 342 145 342 125 q 336 179 342 162 q 318 209 331 195 q 292 233 305 224 q 266 247 279 242 q 240 254 252 252 q 217 256 227 256 q 170 248 193 256 q 127 225 146 239 q 103 203 116 216 q 80 175 91 191 q 63 139 70 159 q 56 98 56 120 q 60 67 56 84 q 70 35 63 51 q 113 -9 84 7 q 180 -24 141 -24 q 235 -16 209 -24 q 279 11 262 -7 z "},";":{"ha":497,"x_min":45,"x_max":469,"o":"m 441 779 q 462 743 456 762 q 469 703 469 724 q 463 660 469 682 q 447 618 456 638 q 425 582 437 599 q 401 553 413 565 q 352 524 381 534 q 289 514 322 514 q 211 533 244 514 q 164 583 178 551 q 151 620 155 601 q 146 654 146 638 q 155 703 146 680 q 176 743 163 725 q 201 773 188 760 q 225 795 215 787 q 326 830 271 830 q 380 821 349 830 q 441 779 410 811 m 389 568 q 411 593 399 578 q 431 626 422 608 q 445 663 439 644 q 451 702 451 682 q 446 735 451 719 q 427 766 440 752 q 401 790 414 781 q 375 804 388 799 q 349 811 361 809 q 326 812 336 812 q 279 804 302 812 q 237 782 255 796 q 213 760 225 772 q 190 731 200 747 q 172 696 179 715 q 165 654 165 677 q 169 624 165 641 q 179 592 172 608 q 222 548 193 564 q 289 532 250 532 q 345 541 318 532 q 389 568 371 550 m 310 119 q 347 96 332 113 q 368 58 361 79 q 378 13 376 36 q 380 -28 380 -11 q 360 -91 376 -58 q 322 -155 345 -123 q 274 -217 300 -187 q 222 -271 248 -246 q 178 -315 200 -295 q 135 -351 155 -336 q 99 -374 115 -366 q 72 -382 83 -382 q 51 -364 56 -375 q 45 -336 45 -353 q 48 -306 45 -323 q 56 -269 51 -288 q 67 -229 61 -249 q 81 -189 73 -208 q 105 -125 92 -156 q 129 -68 118 -94 q 149 -24 140 -43 q 161 1 158 -6 q 190 47 175 24 q 224 88 205 71 q 263 115 242 106 q 310 119 284 123 m 361 -28 q 361 8 363 -12 q 353 47 359 28 q 336 82 347 66 q 305 102 324 97 q 263 94 281 104 q 229 69 244 85 q 202 34 214 53 q 181 -4 191 14 q 158 -50 171 -24 q 132 -106 145 -77 q 106 -169 119 -136 q 84 -231 94 -201 q 68 -290 74 -262 q 62 -338 62 -317 q 64 -355 62 -349 q 72 -364 66 -362 q 114 -345 87 -363 q 173 -298 141 -326 q 238 -234 205 -269 q 298 -161 271 -198 q 342 -90 325 -125 q 361 -28 360 -55 z "},"=":{"ha":709,"x_min":12,"x_max":706,"o":"m 692 238 q 698 191 706 216 q 653 152 690 171 q 561 119 616 134 q 438 96 506 105 q 302 87 371 87 q 211 91 255 87 q 130 103 168 95 q 100 112 116 106 q 67 127 83 119 q 38 148 52 136 q 18 173 25 159 q 13 200 12 186 q 28 231 15 215 q 78 266 45 248 q 157 297 111 283 q 260 320 203 311 q 380 328 317 328 q 430 326 401 328 q 488 320 458 324 q 550 309 519 315 q 609 292 581 302 q 659 268 637 281 q 692 238 680 255 m 680 197 q 682 214 683 205 q 676 229 681 222 q 643 253 665 242 q 594 274 622 264 q 536 290 567 283 q 477 301 506 296 q 422 308 448 305 q 380 310 397 310 q 261 302 317 310 q 161 281 205 294 q 86 252 117 268 q 42 219 55 235 q 32 195 31 207 q 39 174 32 184 q 59 154 47 163 q 85 138 71 145 q 111 127 98 132 q 132 120 124 122 q 213 108 170 111 q 302 104 257 104 q 436 113 371 104 q 554 136 502 122 q 640 165 606 149 q 680 197 674 182 m 692 707 q 698 660 706 685 q 653 622 690 640 q 561 589 616 603 q 438 566 506 574 q 302 557 371 557 q 211 561 255 557 q 130 572 168 564 q 100 582 116 575 q 67 597 83 588 q 38 617 52 606 q 18 642 25 629 q 13 670 12 655 q 28 700 15 684 q 78 735 45 718 q 157 767 111 753 q 260 789 203 781 q 380 798 317 798 q 430 795 401 798 q 488 789 458 793 q 550 778 519 785 q 609 761 581 771 q 659 738 637 751 q 692 707 680 724 m 680 667 q 682 683 683 675 q 676 699 681 691 q 643 723 665 711 q 594 743 622 734 q 536 759 567 752 q 477 770 506 766 q 422 777 448 774 q 380 779 397 779 q 261 771 317 779 q 161 750 205 763 q 86 721 117 737 q 42 688 55 705 q 32 665 31 676 q 39 643 32 653 q 59 624 47 633 q 85 608 71 614 q 111 596 98 601 q 132 589 124 591 q 213 577 170 581 q 302 574 257 574 q 436 583 371 574 q 554 605 502 591 q 640 635 606 618 q 680 667 674 651 z "},"a":{"ha":814,"x_min":19,"x_max":798,"o":"m 788 562 q 794 492 791 535 q 798 399 798 450 q 793 293 798 349 q 779 186 789 238 q 749 87 768 134 q 701 8 730 41 q 578 -49 652 -49 q 469 13 513 -49 q 401 197 425 75 q 386 113 397 155 q 352 36 376 71 q 290 -21 329 2 q 190 -46 251 -43 q 90 -5 125 -46 q 34 139 48 41 q 33 377 19 237 q 52 505 39 439 q 84 631 64 570 q 135 746 104 692 q 207 840 165 800 q 303 904 248 880 q 428 927 358 927 q 548 909 496 927 q 638 863 600 892 q 703 796 676 833 q 747 718 730 758 q 774 636 764 677 q 788 562 783 596 m 690 20 q 735 96 717 52 q 763 192 753 141 q 778 297 774 243 q 781 400 781 351 q 778 491 781 450 q 772 560 775 533 q 756 642 766 600 q 728 723 745 684 q 684 796 710 762 q 622 856 658 830 q 537 896 585 881 q 428 911 489 911 q 309 888 361 911 q 216 826 256 865 q 148 734 176 787 q 99 623 119 682 q 67 499 79 563 q 50 375 56 436 q 49 144 35 239 q 102 6 62 50 q 138 -20 117 -12 q 190 -29 159 -29 q 275 -11 239 -27 q 335 40 311 6 q 372 125 359 73 q 387 248 385 176 q 389 264 388 259 q 397 269 390 269 q 405 265 403 269 q 409 244 406 261 q 473 37 431 106 q 578 -33 515 -33 q 690 20 643 -33 m 410 598 q 445 588 429 598 q 473 559 461 578 q 475 553 475 556 q 471 548 474 550 q 465 546 469 546 q 459 550 462 547 q 412 582 439 582 q 381 572 394 581 q 358 547 368 562 q 353 543 356 543 q 347 544 350 542 q 343 548 345 545 q 344 555 342 551 q 373 586 355 574 q 410 598 390 597 z "},"b":{"ha":828,"x_min":24,"x_max":814,"o":"m 762 388 q 804 298 793 349 q 802 197 814 248 q 754 100 788 144 q 671 25 720 56 q 559 -24 622 -7 q 427 -41 497 -41 q 393 -40 416 -41 q 340 -37 370 -39 q 277 -30 311 -35 q 210 -16 243 -24 q 150 6 178 -7 q 103 37 121 18 q 60 107 76 63 q 36 200 44 151 q 26 298 28 249 q 26 384 24 347 q 32 490 27 437 q 45 594 37 544 q 63 690 53 645 q 85 773 73 736 q 110 836 97 810 q 136 873 123 862 q 213 911 163 898 q 326 925 262 925 q 410 919 368 925 q 489 902 451 913 q 561 874 528 890 q 621 838 595 858 q 685 768 662 806 q 713 690 709 730 q 707 618 718 653 q 671 552 696 583 q 570 479 634 507 q 640 467 609 476 q 695 445 671 458 q 735 417 718 432 q 762 388 751 402 m 786 201 q 788 295 798 248 q 750 378 779 342 q 658 444 715 422 q 517 465 601 465 q 485 461 502 463 q 450 459 467 459 q 427 460 439 459 q 405 463 416 460 q 398 472 397 464 q 401 477 399 475 q 406 478 404 478 q 450 476 430 476 q 571 499 516 476 q 659 563 626 522 q 691 622 681 590 q 698 688 701 654 q 671 760 692 726 q 612 824 649 794 q 553 859 586 843 q 484 885 521 874 q 407 902 447 897 q 325 908 366 908 q 218 896 264 908 q 146 861 172 883 q 122 825 134 850 q 99 764 110 800 q 78 683 87 728 q 61 588 68 637 q 48 486 53 538 q 42 383 43 434 q 57 171 39 257 q 115 48 76 85 q 170 15 135 28 q 248 -7 205 1 q 337 -20 290 -16 q 427 -24 383 -24 q 542 -10 484 -24 q 649 33 600 4 q 735 103 699 61 q 786 201 772 145 m 449 286 q 473 283 461 286 q 496 273 486 279 q 513 258 506 267 q 522 239 520 250 q 516 215 523 227 q 498 196 509 204 q 474 182 487 187 q 448 178 460 178 q 425 181 437 178 q 404 191 414 184 q 388 206 395 197 q 380 226 381 215 q 385 249 378 238 q 401 269 391 260 q 425 281 412 277 q 449 286 437 286 m 448 195 q 465 198 455 195 q 484 206 475 201 q 499 219 493 212 q 505 237 505 227 q 498 250 504 244 q 485 260 493 256 q 467 267 477 264 q 449 269 458 269 q 432 267 441 269 q 415 258 423 264 q 402 245 408 253 q 397 228 397 238 q 414 204 398 214 q 448 195 431 195 m 408 653 q 353 618 374 652 q 342 617 349 612 q 339 628 336 621 q 369 658 351 647 q 408 670 387 669 q 473 632 448 670 q 472 621 477 625 q 459 623 466 617 q 408 653 439 653 z "},"c":{"ha":812,"x_min":26,"x_max":793,"o":"m 656 469 q 705 460 680 469 q 749 429 729 450 q 781 373 768 408 q 793 288 793 338 q 785 215 793 249 q 758 149 776 180 q 711 89 739 118 q 643 32 682 60 q 532 -23 592 -4 q 409 -42 472 -42 q 216 5 310 -42 q 134 68 169 28 q 77 157 100 108 q 42 261 54 205 q 28 372 30 317 q 33 481 26 428 q 56 578 40 534 q 168 770 94 690 q 346 893 241 850 q 422 917 385 909 q 498 925 460 925 q 617 902 562 925 q 713 836 673 879 q 774 727 755 789 q 787 591 793 664 q 777 554 786 572 q 752 519 767 535 q 716 491 736 503 q 671 476 695 479 q 649 474 661 475 q 626 473 637 473 q 586 476 607 473 q 544 484 564 478 q 504 498 523 490 q 473 521 486 507 q 473 471 474 496 q 467 432 472 453 q 538 458 491 449 q 656 469 585 468 m 633 45 q 698 99 671 72 q 743 156 725 127 q 769 218 760 186 q 777 288 777 251 q 767 365 777 333 q 739 416 756 397 q 700 444 722 435 q 656 453 678 453 q 560 445 597 451 q 502 431 523 439 q 471 414 480 423 q 460 399 463 406 q 447 349 456 374 q 426 301 437 324 q 414 297 421 295 q 411 308 407 300 q 431 355 420 332 q 445 405 441 379 q 452 439 450 422 q 456 471 455 456 q 457 515 458 493 q 453 559 456 536 q 448 585 450 572 q 442 608 445 597 q 437 632 439 621 q 437 638 435 635 q 441 642 439 641 q 447 642 444 643 q 452 637 450 641 q 459 615 453 635 q 469 561 465 595 q 486 530 471 543 q 523 507 501 516 q 572 494 545 498 q 626 490 599 490 q 648 490 637 490 q 669 492 659 491 q 708 505 690 495 q 740 530 726 515 q 762 560 753 544 q 772 592 770 576 q 759 722 777 663 q 701 825 741 781 q 611 887 663 865 q 498 909 559 909 q 352 878 425 909 q 180 759 251 836 q 71 573 109 682 q 50 481 57 532 q 45 376 43 430 q 59 268 47 321 q 92 166 70 214 q 147 80 114 119 q 224 20 180 42 q 409 -26 314 -26 q 527 -7 469 -26 q 633 45 584 12 z "},"d":{"ha":781,"x_min":25,"x_max":771,"o":"m 650 754 q 744 583 717 682 q 753 372 771 484 q 722 255 743 311 q 668 151 700 199 q 596 64 636 102 q 509 0 555 25 q 465 -19 490 -10 q 411 -33 440 -27 q 351 -42 382 -39 q 287 -45 319 -45 q 202 -39 241 -45 q 132 -21 163 -33 q 80 8 101 -9 q 48 47 58 25 q 36 99 41 62 q 28 190 31 137 q 25 306 26 242 q 27 436 25 369 q 35 570 30 503 q 48 695 40 637 q 68 802 57 754 q 96 877 80 849 q 136 913 112 909 q 188 919 163 917 q 239 921 214 921 q 350 911 299 921 q 444 887 401 902 q 521 852 487 871 q 581 815 555 833 q 624 780 607 796 q 650 754 642 764 m 736 376 q 728 578 753 483 q 639 744 703 674 q 613 768 630 753 q 571 802 596 784 q 513 838 546 820 q 438 871 479 857 q 347 895 397 886 q 239 905 297 905 q 189 902 214 905 q 138 897 164 900 q 110 869 123 895 q 84 795 95 842 q 64 691 73 749 q 52 567 56 633 q 44 435 47 501 q 42 306 42 369 q 45 192 43 243 q 52 104 47 141 q 63 54 57 68 q 97 15 73 31 q 152 -10 121 -1 q 218 -24 183 -20 q 287 -28 253 -28 q 407 -17 351 -28 q 500 14 464 -5 q 585 77 546 39 q 654 161 624 115 q 706 262 685 208 q 736 376 727 317 m 397 503 q 416 496 408 503 q 432 481 425 490 q 442 462 438 473 q 446 442 446 451 q 431 409 446 422 q 397 395 417 395 q 364 409 378 395 q 350 442 350 422 q 354 462 350 451 q 363 481 357 473 q 378 496 370 490 q 397 503 387 503 m 397 410 q 420 419 411 410 q 429 442 429 429 q 426 457 429 450 q 419 471 423 465 q 409 481 415 477 q 397 486 404 486 q 386 481 391 486 q 376 471 380 477 q 369 457 372 465 q 366 442 366 450 q 375 419 366 429 q 397 410 385 410 z "},"e":{"ha":735,"x_min":24,"x_max":720,"o":"m 707 235 q 711 133 720 180 q 673 47 702 85 q 585 -19 640 5 q 458 -47 530 -43 q 319 -43 390 -50 q 181 -11 249 -37 q 36 153 52 38 q 26 279 28 210 q 29 421 24 349 q 42 566 33 494 q 65 700 52 638 q 95 807 78 761 q 130 874 111 853 q 212 916 153 901 q 357 930 271 930 q 445 925 399 930 q 530 911 490 920 q 602 886 570 901 q 651 852 634 871 q 684 792 673 825 q 694 728 695 760 q 680 666 692 696 q 642 615 667 637 q 592 581 620 595 q 532 555 565 566 q 608 463 602 536 q 596 417 609 439 q 562 380 583 395 q 606 367 584 377 q 649 339 629 357 q 684 295 669 321 q 707 235 699 269 m 660 57 q 694 137 686 92 q 690 232 703 181 q 663 297 682 271 q 623 338 645 323 q 577 359 600 353 q 536 366 554 366 q 463 340 503 349 q 382 330 422 330 q 354 332 367 330 q 328 335 340 333 q 321 343 320 336 q 329 352 321 351 q 356 348 342 349 q 382 347 369 347 q 435 351 409 347 q 486 362 462 355 q 530 380 509 370 q 564 404 550 391 q 591 462 593 431 q 494 545 585 540 q 436 535 466 538 q 373 532 406 532 q 354 532 363 532 q 336 532 345 532 q 331 536 332 533 q 329 541 329 538 q 331 546 329 544 q 336 549 332 549 q 355 548 346 549 q 373 548 363 548 q 522 568 456 548 q 631 627 587 588 q 665 673 653 646 q 677 729 676 700 q 669 788 678 759 q 639 841 659 817 q 598 870 625 857 q 533 893 571 884 q 451 908 496 903 q 357 914 406 914 q 219 901 275 914 q 142 864 162 887 q 109 799 125 844 q 80 693 93 753 q 59 561 68 632 q 45 418 50 490 q 42 278 41 346 q 52 155 43 210 q 83 80 60 111 q 138 28 106 49 q 211 -5 171 7 q 293 -23 251 -17 q 377 -30 335 -28 q 456 -31 419 -31 q 576 -5 524 -28 q 660 57 629 18 z "},"f":{"ha":719,"x_min":26,"x_max":702,"o":"m 610 876 q 660 842 641 863 q 688 797 678 821 q 700 747 698 772 q 699 701 702 722 q 685 656 694 678 q 659 616 675 634 q 622 585 644 597 q 572 568 600 572 q 593 555 581 563 q 610 538 605 547 q 601 477 626 513 q 569 454 591 463 q 513 438 546 444 q 468 434 491 435 q 422 435 446 434 q 481 370 459 408 q 510 288 503 332 q 508 198 517 245 q 475 108 500 152 q 380 -2 436 36 q 258 -39 325 -39 q 207 -34 233 -39 q 155 -16 181 -28 q 61 139 94 14 q 38 261 46 195 q 28 397 30 328 q 30 533 26 466 q 42 659 34 600 q 64 761 51 717 q 93 829 77 806 q 194 899 125 874 q 359 924 264 924 q 428 921 393 924 q 495 911 463 918 q 557 897 528 905 q 610 876 587 888 m 541 581 q 597 591 573 581 q 638 619 621 602 q 665 657 655 636 q 680 699 675 679 q 683 746 684 722 q 672 792 681 770 q 647 832 663 814 q 604 862 630 850 q 550 880 580 872 q 489 895 521 888 q 422 904 456 901 q 356 907 389 907 q 294 904 330 907 q 224 891 259 901 q 157 865 189 882 q 105 820 125 848 q 78 754 90 798 q 58 653 66 710 q 46 530 50 596 q 45 395 43 463 q 55 262 47 328 q 77 143 62 197 q 114 48 92 84 q 163 -1 136 12 q 212 -18 188 -12 q 259 -24 237 -24 q 372 12 321 -24 q 461 115 423 48 q 493 208 486 160 q 490 299 500 256 q 454 380 480 343 q 387 439 428 416 q 337 452 359 445 q 301 471 315 460 q 298 480 296 474 q 306 486 300 486 q 312 484 308 486 q 340 469 323 475 q 376 459 357 463 q 416 453 395 455 q 454 452 436 452 q 483 453 469 452 q 511 455 497 454 q 560 468 540 460 q 588 487 581 475 q 595 530 607 514 q 564 555 587 545 q 512 570 541 564 q 453 578 484 576 q 400 581 423 581 q 380 580 389 581 q 365 578 372 580 q 359 581 361 578 q 356 586 357 583 q 358 592 356 589 q 364 595 360 595 q 379 596 370 595 q 400 596 389 596 q 425 596 409 596 q 459 594 440 595 q 500 589 479 592 q 541 581 522 586 z "},"g":{"ha":828,"x_min":25,"x_max":807,"o":"m 806 273 q 807 212 806 245 q 804 145 807 179 q 794 79 802 112 q 771 19 787 47 q 731 -28 756 -8 q 669 -58 707 -49 q 555 -31 600 -64 q 481 70 509 3 q 455 35 475 54 q 408 1 435 16 q 348 -25 381 -15 q 282 -35 315 -35 q 244 -32 262 -35 q 211 -20 227 -28 q 131 41 165 2 q 75 131 98 81 q 41 240 53 182 q 27 356 30 298 q 32 471 25 415 q 54 572 39 526 q 104 689 75 635 q 170 785 134 743 q 249 857 206 827 q 337 899 291 886 q 406 915 372 910 q 473 920 439 920 q 596 898 541 920 q 692 835 651 876 q 751 726 733 789 q 762 585 769 663 q 746 533 760 555 q 710 495 732 511 q 662 472 689 480 q 606 465 635 465 q 565 467 587 465 q 522 476 543 470 q 483 493 501 483 q 454 518 465 503 q 458 424 460 471 q 454 323 456 376 q 470 359 461 341 q 487 389 478 377 q 532 427 509 413 q 579 448 555 441 q 626 458 602 456 q 673 460 649 460 q 720 450 696 460 q 763 418 744 440 q 794 360 782 396 q 806 273 806 324 m 668 -41 q 724 -17 702 -35 q 759 26 746 1 q 779 84 772 52 q 788 148 785 115 q 790 213 790 181 q 789 273 789 245 q 779 353 789 320 q 753 406 769 385 q 715 435 736 426 q 673 444 694 444 q 628 441 650 444 q 584 432 606 439 q 541 412 562 425 q 499 377 520 399 q 481 348 490 367 q 466 310 473 329 q 455 277 459 292 l 451 264 q 442 256 449 256 q 437 260 439 257 q 435 266 435 262 q 437 297 436 276 q 438 346 437 319 q 440 404 439 373 q 441 463 441 434 q 440 487 441 471 q 437 521 439 503 q 432 558 435 539 q 428 592 430 576 q 424 618 426 608 q 422 630 422 629 q 424 636 422 633 q 431 640 426 640 q 439 633 437 640 l 440 626 q 445 608 442 619 q 450 583 448 597 q 456 555 453 569 q 473 523 458 536 q 508 499 487 509 q 554 486 528 490 q 606 481 580 481 q 656 488 632 481 q 700 509 681 495 q 732 543 720 523 q 747 587 745 562 q 735 721 752 661 q 679 822 718 780 q 590 883 642 863 q 473 904 538 904 q 408 899 441 904 q 341 884 374 893 q 257 843 297 871 q 181 774 216 815 q 117 682 146 734 q 69 568 89 629 q 48 470 55 524 q 43 359 41 416 q 56 246 45 302 q 87 141 66 190 q 141 54 109 92 q 217 -5 173 16 q 248 -16 231 -13 q 282 -19 264 -19 q 348 -8 316 -19 q 407 19 380 3 q 449 52 433 35 q 468 82 466 70 q 471 91 469 85 q 479 97 473 97 q 488 92 485 97 q 496 76 491 87 q 525 24 509 47 q 561 -15 541 1 q 608 -38 581 -31 q 668 -41 634 -45 z "},"h":{"ha":894,"x_min":26,"x_max":876,"o":"m 872 477 q 875 359 876 418 q 867 244 873 300 q 847 140 860 189 q 816 54 834 92 q 773 -8 798 16 q 717 -39 748 -33 q 653 -44 687 -45 q 588 -34 620 -43 q 531 -3 557 -24 q 492 51 505 17 q 479 103 484 72 q 473 170 475 134 q 470 240 471 205 q 469 306 469 276 l 469 333 q 469 357 469 347 q 451 356 460 356 q 433 357 442 355 l 433 306 q 432 240 433 276 q 429 170 431 205 q 423 103 427 134 q 410 51 418 72 q 373 -2 398 18 q 317 -33 348 -23 q 251 -44 286 -43 q 184 -39 216 -45 q 129 -8 153 -33 q 85 54 104 16 q 55 140 67 92 q 35 244 42 189 q 27 359 28 300 q 31 477 26 418 q 43 581 35 528 q 64 683 51 634 q 95 775 77 732 q 138 851 113 819 q 193 902 162 883 q 261 920 223 920 q 326 906 299 920 q 370 867 352 891 q 400 812 388 843 q 421 749 412 781 q 429 706 426 731 q 432 654 431 682 q 433 597 433 626 l 433 519 l 457 519 q 459 574 457 543 q 464 638 460 606 q 471 700 467 670 q 481 749 475 729 q 503 812 491 781 q 533 867 515 843 q 577 906 551 891 q 641 920 603 920 q 710 902 679 920 q 765 851 741 883 q 808 776 789 819 q 840 684 827 733 q 861 582 852 635 q 872 477 869 529 m 714 -22 q 765 7 743 -16 q 805 68 787 31 q 833 152 822 104 q 851 253 845 199 q 859 363 857 307 q 856 477 860 420 q 844 582 852 530 q 823 682 836 634 q 792 770 810 729 q 752 840 774 810 q 702 887 729 870 q 642 904 674 904 q 585 891 608 904 q 545 856 562 878 q 518 804 529 833 q 498 744 507 775 q 488 698 492 726 q 480 638 484 670 q 475 575 477 607 q 473 518 473 543 q 501 512 489 516 q 520 503 513 509 q 524 497 522 500 q 519 489 524 493 q 510 490 515 486 q 485 499 503 496 q 445 503 467 503 q 372 490 401 503 q 367 488 370 487 q 362 492 363 490 q 361 498 360 495 q 366 503 361 501 q 389 512 376 509 q 416 518 401 516 q 417 530 417 524 l 417 594 q 416 650 417 623 q 412 703 415 678 q 405 744 410 728 q 385 804 395 775 q 357 856 374 833 q 318 891 341 878 q 261 904 295 904 q 200 887 228 904 q 151 840 173 870 q 111 769 128 810 q 80 681 93 728 q 59 581 67 633 q 47 477 51 529 q 44 364 43 421 q 51 253 45 307 q 69 152 57 199 q 98 68 81 104 q 137 7 115 31 q 189 -22 160 -16 q 246 -27 215 -28 q 307 -19 277 -27 q 359 7 336 -11 q 395 57 383 26 q 407 107 403 77 q 413 172 411 137 q 416 241 415 206 q 416 306 416 276 l 416 357 q 389 363 401 360 q 366 372 376 367 q 361 381 360 376 q 369 387 361 387 q 371 387 370 387 q 372 387 372 387 q 405 376 386 380 q 445 372 423 372 q 485 376 467 372 q 509 386 503 380 q 515 387 513 387 q 523 382 520 387 q 520 373 526 377 q 506 366 515 369 q 486 360 498 362 q 486 335 486 349 l 486 306 q 487 241 486 276 q 489 172 487 206 q 495 107 491 137 q 508 57 500 77 q 543 8 520 26 q 594 -18 566 -9 q 654 -27 623 -27 q 714 -22 686 -28 z "},"i":{"ha":449,"x_min":25,"x_max":441,"o":"m 361 876 q 425 726 408 827 q 431 463 441 625 q 423 384 429 425 q 410 301 418 343 q 392 217 402 258 q 370 138 382 176 q 352 80 362 112 q 326 21 342 48 q 286 -25 310 -7 q 227 -44 262 -44 q 175 -33 198 -44 q 134 -2 152 -21 q 103 42 117 17 q 80 94 90 67 q 63 149 71 121 q 51 201 56 176 q 36 289 41 242 q 27 383 30 336 q 26 474 25 430 q 30 553 26 517 q 96 834 45 742 q 239 926 147 926 q 361 876 315 926 m 415 463 q 409 720 425 621 q 349 865 393 818 q 239 909 309 909 q 107 821 155 909 q 46 553 60 733 q 43 474 43 517 q 44 385 42 431 q 52 292 47 338 q 67 205 58 245 q 78 160 72 185 q 93 109 84 135 q 114 59 102 83 q 142 15 125 35 q 179 -16 158 -4 q 227 -27 200 -27 q 279 -9 258 -27 q 315 34 300 8 q 339 90 330 60 q 355 143 349 119 q 376 221 366 180 q 394 303 386 262 q 408 386 402 345 q 415 463 413 427 m 248 970 q 170 989 203 970 q 121 1040 136 1007 q 105 1116 102 1082 q 120 1177 107 1150 q 152 1223 134 1204 q 183 1253 170 1242 q 232 1278 205 1270 q 286 1287 258 1287 q 311 1285 297 1287 q 340 1277 325 1283 q 370 1261 355 1272 q 401 1235 386 1251 q 428 1178 424 1210 q 422 1115 431 1146 q 397 1055 414 1083 q 361 1010 380 1027 q 312 981 342 991 q 248 970 281 970 m 193 1240 q 161 1210 178 1228 q 133 1168 144 1192 q 121 1113 122 1143 q 136 1047 119 1083 q 179 1003 149 1019 q 248 987 208 987 q 306 996 279 987 q 350 1023 332 1006 q 382 1063 366 1038 q 406 1117 398 1088 q 412 1174 414 1145 q 389 1224 410 1202 q 334 1262 362 1253 q 286 1271 307 1271 q 237 1263 260 1271 q 193 1240 213 1255 z "},"j":{"ha":996,"x_min":23,"x_max":975,"o":"m 970 757 q 974 729 972 747 q 972 689 975 711 q 959 642 968 667 q 932 593 950 618 q 907 566 922 580 q 871 538 892 551 q 821 513 849 524 q 755 494 792 501 q 772 430 766 468 q 778 349 779 393 q 767 258 777 305 q 739 166 758 211 q 715 117 730 143 q 679 66 701 91 q 630 21 658 42 q 565 -12 602 1 q 482 -33 528 -26 q 388 -40 437 -40 q 290 -32 340 -40 q 194 -7 239 -24 q 112 38 149 10 q 56 106 75 66 q 31 181 38 143 q 26 254 23 218 q 41 322 28 290 q 77 382 54 354 q 152 438 109 418 q 244 458 195 458 q 291 453 268 458 q 334 438 314 448 q 371 410 354 427 q 399 369 387 393 q 397 425 399 397 q 404 481 396 453 q 144 576 209 481 q 121 630 127 602 q 118 684 116 658 q 126 732 119 710 q 140 770 133 755 q 285 889 181 850 q 564 928 389 928 q 636 927 596 928 q 716 921 675 926 q 798 906 758 916 q 872 877 838 896 q 932 829 907 858 q 970 757 958 800 m 920 603 q 943 645 935 623 q 955 687 951 667 q 958 724 959 707 q 955 753 958 741 q 906 836 940 805 q 825 882 871 866 q 722 904 778 899 q 610 911 667 909 q 586 911 597 911 q 564 911 575 911 q 294 874 395 911 q 155 763 193 837 q 142 728 149 749 q 134 683 136 707 q 137 633 132 659 q 157 585 142 608 q 404 498 216 498 q 441 499 421 498 q 481 501 460 500 q 490 494 490 501 q 482 485 491 486 q 451 483 467 484 q 420 481 436 482 q 415 442 415 469 l 415 387 q 416 340 416 364 q 414 292 416 315 q 412 261 414 277 q 404 228 410 245 q 360 175 390 185 q 359 175 359 175 q 357 174 358 174 q 350 181 351 174 q 355 191 349 187 q 368 200 356 191 q 389 237 379 210 q 394 261 393 248 q 397 292 396 274 q 387 353 397 326 q 356 401 376 381 q 308 431 336 420 q 244 442 279 442 q 160 424 199 442 q 90 371 120 406 q 56 315 68 345 q 42 252 44 285 q 46 183 39 218 q 71 113 54 148 q 124 49 89 75 q 204 7 160 23 q 297 -17 248 -9 q 389 -24 345 -24 q 481 -17 437 -24 q 560 3 524 -11 q 621 35 594 15 q 667 78 647 55 q 701 126 687 102 q 724 173 715 151 q 751 263 743 218 q 761 352 760 309 q 756 430 762 394 q 738 491 749 466 q 704 487 721 488 q 668 486 686 486 q 661 494 661 487 q 663 499 661 497 q 668 502 665 502 q 820 529 757 503 q 920 603 883 555 z "},"k":{"ha":951,"x_min":25,"x_max":939,"o":"m 882 323 q 928 208 916 266 q 926 97 939 150 q 899 41 916 67 q 859 -4 882 15 q 806 -34 836 -23 q 744 -45 777 -45 q 640 -18 692 -45 q 547 58 588 9 q 503 117 522 88 q 472 177 485 146 q 449 238 458 207 q 433 302 440 269 q 419 230 429 269 q 395 154 410 192 q 360 81 380 116 q 317 19 341 45 q 216 -33 268 -33 q 119 6 156 -33 q 48 162 72 54 q 26 443 25 270 q 32 546 26 492 q 49 654 37 601 q 79 755 61 707 q 121 839 96 803 q 176 897 145 876 q 243 919 206 919 q 303 906 272 919 q 360 862 334 892 q 407 784 387 832 q 434 666 427 736 q 481 752 450 707 q 552 836 511 798 q 642 900 593 874 q 745 925 691 925 q 825 898 790 925 q 878 828 859 871 q 879 722 896 776 q 811 622 862 667 q 719 558 772 585 q 606 521 665 532 q 675 497 639 512 q 748 458 711 481 q 819 401 785 435 q 882 323 854 368 m 909 102 q 911 206 922 151 q 867 315 900 262 q 794 402 835 367 q 710 461 753 438 q 628 497 668 484 q 559 515 589 509 q 553 524 553 516 q 561 531 554 531 q 609 538 581 532 q 671 556 638 544 q 737 587 703 568 q 801 633 771 606 q 863 726 847 676 q 862 823 879 775 q 845 856 856 840 q 818 884 833 872 q 784 903 803 896 q 745 909 766 909 q 670 895 706 909 q 601 856 633 880 q 540 802 568 832 q 491 739 512 771 q 455 675 469 707 q 436 620 441 644 q 428 613 435 612 q 420 621 421 614 q 405 737 418 685 q 369 826 391 789 q 314 883 346 863 q 244 903 282 903 q 186 885 213 903 q 137 833 159 866 q 96 756 114 800 q 67 660 79 711 q 48 553 55 609 q 42 443 42 498 q 63 168 41 273 q 130 18 85 62 q 216 -16 164 -16 q 304 31 262 -16 q 356 106 333 61 q 394 199 378 151 q 416 295 409 248 q 419 378 422 342 q 421 384 418 381 q 427 387 423 387 q 435 380 435 387 q 451 294 443 335 q 473 216 460 254 q 507 142 487 178 q 557 68 527 105 q 647 -2 598 24 q 744 -28 696 -28 q 800 -19 773 -28 q 848 7 827 -10 q 885 48 869 24 q 909 102 901 72 z "},"l":{"ha":782,"x_min":25,"x_max":766,"o":"m 713 349 q 765 224 766 305 q 731 104 764 155 q 643 21 698 54 q 519 -28 589 -12 q 376 -44 450 -44 q 142 33 227 -43 q 36 260 58 108 q 31 305 33 276 q 27 371 28 334 q 25 451 25 408 q 28 541 26 495 q 38 633 31 587 q 55 722 44 680 q 83 800 66 764 q 121 863 99 836 q 188 911 149 894 q 271 928 226 928 q 313 923 292 928 q 355 911 334 919 q 428 860 397 892 q 477 782 458 827 q 503 682 496 737 q 503 563 509 627 q 496 522 500 545 q 487 476 492 500 q 473 428 481 452 q 456 382 465 404 q 566 392 515 392 q 652 381 614 392 q 713 349 689 371 m 376 -27 q 513 -12 446 -27 q 632 33 580 3 q 715 111 684 64 q 748 224 747 159 q 703 336 750 297 q 566 376 659 376 q 511 373 540 376 q 448 363 482 369 q 415 313 432 332 q 378 287 397 294 q 369 290 372 287 q 368 298 367 294 q 372 302 370 301 q 415 340 395 311 q 449 407 434 369 q 473 488 463 446 q 487 564 483 530 q 487 678 493 625 q 463 773 481 731 q 416 847 445 816 q 349 895 387 878 q 310 907 329 903 q 271 911 291 911 q 194 896 230 911 q 134 851 159 880 q 87 767 105 817 q 58 658 68 716 q 45 538 48 600 q 42 422 41 477 q 45 326 42 368 q 52 262 49 283 q 152 44 73 115 q 376 -27 231 -26 z "},"m":{"ha":1085,"x_min":31,"x_max":1057,"o":"m 935 844 q 972 784 955 823 q 1003 697 989 746 q 1028 590 1017 648 q 1045 473 1038 533 q 1055 354 1052 413 q 1055 242 1057 295 q 1047 145 1053 189 q 1029 73 1040 102 q 1003 32 1020 52 q 966 -2 987 12 q 920 -25 945 -17 q 871 -34 896 -34 q 831 -30 852 -34 q 788 -16 810 -26 q 748 8 767 -7 q 715 45 729 23 q 676 119 691 83 q 652 186 661 155 q 640 243 644 218 q 635 287 637 269 q 618 253 629 271 q 596 221 608 235 q 568 197 583 207 q 536 188 553 188 q 510 196 523 188 q 487 218 498 205 q 467 247 476 231 q 452 277 458 262 q 446 234 450 259 q 433 179 442 209 q 410 115 425 149 q 374 45 395 81 q 340 8 359 23 q 300 -16 321 -7 q 258 -30 279 -26 q 218 -34 236 -34 q 170 -26 194 -34 q 124 -4 146 -18 q 85 30 102 10 q 59 73 68 50 q 41 145 47 102 q 33 242 35 189 q 34 354 31 295 q 43 473 37 413 q 60 590 50 533 q 85 697 71 648 q 116 784 99 746 q 153 844 133 823 q 183 872 165 859 q 223 895 201 885 q 269 910 245 905 q 318 916 293 916 q 402 898 362 916 q 475 847 441 880 q 517 789 500 821 q 543 723 535 758 q 571 789 553 758 q 614 847 589 821 q 686 898 646 880 q 770 916 726 916 q 812 911 789 916 q 858 897 836 906 q 901 874 881 887 q 935 844 921 861 m 1014 79 q 1031 149 1025 106 q 1039 243 1037 191 q 1038 353 1040 295 q 1029 470 1036 411 q 1013 585 1023 528 q 989 690 1002 642 q 959 775 975 738 q 922 833 942 813 l 916 840 q 907 848 912 844 q 770 900 839 900 q 692 883 730 900 q 625 836 655 866 q 573 758 592 802 q 553 666 554 715 q 551 656 551 661 q 543 652 551 652 q 536 661 536 652 q 517 753 537 707 q 463 836 498 799 q 396 883 433 866 q 318 900 359 900 q 277 896 298 900 q 236 883 256 891 q 198 862 216 874 q 166 833 180 849 q 130 775 146 813 q 100 690 113 738 q 76 585 86 642 q 59 470 66 528 q 50 353 53 411 q 49 243 47 295 q 57 149 51 191 q 74 79 63 106 q 96 45 81 62 q 129 14 111 28 q 169 -8 147 0 q 212 -17 191 -17 q 298 2 259 -17 q 359 56 338 22 q 408 152 391 105 q 430 236 424 199 q 436 300 437 274 q 435 334 436 326 q 444 343 435 342 q 449 341 447 343 q 452 336 452 340 q 467 291 457 314 q 488 248 476 267 q 512 216 499 229 q 536 204 524 204 q 571 219 555 204 q 601 255 588 234 q 622 300 613 277 q 636 339 631 323 q 644 343 638 343 q 652 334 652 342 q 651 300 652 326 q 658 236 651 274 q 681 152 665 199 q 729 56 697 105 q 790 2 751 22 q 876 -17 829 -17 q 918 -9 897 -17 q 957 11 939 -2 q 991 42 976 24 q 1014 79 1006 60 z "},"n":{"ha":922,"x_min":29,"x_max":908,"o":"m 907 497 q 904 368 908 432 q 894 249 901 304 q 879 153 888 194 q 862 92 871 111 q 836 45 852 69 q 798 3 819 22 q 750 -28 777 -16 q 694 -41 724 -41 q 672 -39 683 -41 q 650 -33 662 -37 q 595 -2 619 -23 q 551 47 570 19 q 516 107 532 75 q 488 173 500 140 q 483 114 488 142 q 467 62 478 86 q 393 -15 443 13 q 278 -45 344 -43 q 217 -38 246 -45 q 162 -17 187 -31 q 117 14 136 -4 q 85 54 97 32 q 54 156 66 92 q 35 297 41 220 q 31 457 29 374 q 41 615 32 540 q 66 751 50 690 q 107 843 83 811 q 174 901 137 882 q 254 921 212 921 q 319 910 287 921 q 379 878 351 899 q 434 818 407 857 q 488 718 461 779 q 529 836 498 786 q 606 911 559 885 q 648 927 626 922 q 694 932 671 932 q 783 908 743 932 q 844 842 821 887 q 881 741 867 798 q 901 620 895 684 q 907 497 906 556 m 846 98 q 864 159 855 118 q 879 253 873 199 q 889 371 886 307 q 892 499 893 434 q 885 627 891 564 q 864 744 878 690 q 829 836 850 797 q 775 894 807 876 q 736 910 758 905 q 694 916 715 916 q 614 897 652 916 q 536 817 566 870 q 501 688 507 763 q 535 600 519 645 q 565 515 551 555 q 591 441 578 475 q 614 385 603 408 q 615 378 616 382 q 611 374 614 375 q 604 373 608 372 q 600 377 601 374 q 575 435 588 401 q 549 512 563 470 q 519 597 535 553 q 485 684 503 641 q 427 799 455 754 q 370 865 398 843 q 314 895 343 884 q 254 905 284 905 q 181 886 215 905 q 120 833 147 868 q 89 771 102 810 q 67 682 76 732 q 54 573 58 631 q 48 455 49 515 q 50 336 47 395 q 59 225 53 277 q 76 131 66 173 q 100 62 87 88 q 129 25 111 41 q 170 -4 147 8 q 220 -22 193 -16 q 277 -28 248 -28 q 328 -23 302 -28 q 377 -5 353 -17 q 420 26 400 7 q 452 70 439 44 q 463 240 484 140 q 448 285 456 262 q 432 334 441 309 q 411 399 422 366 q 388 466 399 433 q 366 527 377 498 q 343 581 354 557 q 349 591 341 587 l 354 591 q 358 587 357 591 q 381 534 369 564 q 404 472 393 504 q 427 406 416 439 q 448 340 438 372 q 471 270 460 303 q 492 211 481 237 q 516 148 502 183 q 549 80 530 113 q 595 20 569 47 q 656 -18 621 -7 q 675 -23 665 -21 q 694 -24 684 -24 q 745 -13 722 -24 q 788 16 769 -2 q 822 56 808 34 q 846 98 837 77 z "},"o":{"ha":846,"x_min":25,"x_max":830,"o":"m 515 918 q 624 883 576 909 q 710 819 673 857 q 772 731 747 780 q 811 626 797 682 q 827 512 825 571 q 823 393 830 452 q 800 299 817 349 q 756 201 783 250 q 693 107 730 152 q 611 29 656 63 q 510 -25 565 -5 q 392 -45 455 -45 q 274 -28 334 -45 q 175 24 217 -11 q 103 104 133 58 q 57 205 74 151 q 32 316 39 259 q 27 428 25 372 q 40 531 30 483 q 91 674 55 604 q 181 800 127 745 q 305 889 235 855 q 458 923 375 923 q 515 918 486 923 m 806 395 q 811 510 814 452 q 796 620 809 567 q 759 721 783 673 q 700 806 734 768 q 618 868 665 844 q 513 902 571 893 q 486 906 499 904 q 458 907 472 907 q 311 874 378 907 q 192 788 243 842 q 105 666 140 734 q 56 528 71 598 q 44 428 46 481 q 48 320 41 374 q 72 213 55 265 q 116 116 88 160 q 184 38 144 71 q 279 -12 224 4 q 392 -28 336 -28 q 505 -9 452 -28 q 602 43 558 11 q 682 119 646 76 q 743 210 717 163 q 784 304 768 256 q 806 395 800 353 m 431 510 q 450 504 441 510 q 466 489 459 498 q 476 469 472 480 q 479 450 479 458 q 465 416 479 430 q 431 403 451 403 q 397 416 411 403 q 383 450 383 430 q 387 469 383 458 q 397 489 391 480 q 412 504 403 498 q 431 510 420 510 m 431 420 q 453 429 444 420 q 463 450 463 437 q 460 464 463 456 q 453 478 457 472 q 443 489 448 485 q 431 493 437 493 q 420 489 425 493 q 410 478 414 485 q 403 464 406 472 q 400 450 400 456 q 409 429 400 437 q 431 420 418 420 z "},"p":{"ha":779,"x_min":25,"x_max":762,"o":"m 701 793 q 748 692 733 748 q 759 579 762 637 q 734 468 755 522 q 675 372 713 414 q 592 310 639 331 q 492 289 546 289 q 471 290 481 289 q 450 292 461 290 q 468 244 463 270 q 472 193 473 218 q 468 146 472 168 q 462 111 465 124 q 410 21 450 60 q 310 -37 370 -18 q 268 -47 289 -43 q 227 -50 248 -50 q 154 -38 188 -50 q 94 -4 119 -26 q 62 53 75 13 q 40 148 48 93 q 28 268 32 202 q 26 401 25 333 q 33 538 28 470 q 48 665 39 606 q 71 770 58 724 q 100 843 84 817 q 148 886 117 869 q 215 913 179 903 q 289 926 252 923 q 355 930 326 930 q 449 923 400 930 q 545 899 498 916 q 633 857 592 883 q 701 793 673 831 m 664 382 q 720 474 700 422 q 742 581 739 526 q 732 688 745 635 q 687 784 718 741 q 622 845 661 820 q 538 885 583 869 q 446 907 494 900 q 355 913 398 913 q 296 910 331 913 q 225 898 260 907 q 159 873 190 888 q 114 833 129 858 q 86 764 98 809 q 64 662 73 720 q 50 538 55 604 q 43 405 44 472 q 44 273 41 337 q 54 155 47 209 q 74 63 62 102 q 105 8 87 24 q 159 -22 128 -12 q 227 -33 191 -33 q 305 -22 265 -33 q 397 33 360 -4 q 446 115 435 69 q 453 152 449 130 q 456 200 456 175 q 450 251 456 226 q 427 296 444 277 q 369 314 398 302 q 309 343 339 326 q 306 355 304 350 q 317 358 308 359 q 406 319 363 332 q 492 305 450 305 q 586 325 543 305 q 664 382 629 344 m 422 637 q 486 600 461 637 q 488 593 488 597 q 484 588 488 589 q 478 587 481 587 q 473 591 475 587 q 422 621 452 621 q 394 611 408 620 q 372 587 381 603 q 361 584 370 581 q 357 595 354 589 q 386 626 369 614 q 422 637 404 637 z "},"q":{"ha":873,"x_min":20,"x_max":850,"o":"m 694 79 q 739 60 718 71 q 777 35 760 49 q 804 5 793 21 q 819 -28 815 -12 q 821 -51 821 -39 q 816 -77 821 -63 q 801 -105 812 -90 q 771 -136 790 -120 q 723 -164 747 -154 q 674 -174 698 -174 q 624 -162 647 -174 q 584 -129 601 -150 q 557 -78 567 -107 q 547 -15 547 -49 q 483 -37 516 -29 q 412 -44 449 -44 q 261 -15 330 -44 q 140 72 192 14 q 84 154 108 108 q 45 252 60 200 q 25 362 31 304 q 26 478 20 419 q 52 596 33 540 q 100 702 71 653 q 168 791 129 751 q 251 860 206 831 q 348 906 296 889 q 453 924 399 922 q 602 899 536 924 q 717 823 667 873 q 816 661 782 757 q 850 448 850 564 q 831 304 850 367 q 787 195 812 241 q 735 120 762 149 q 694 79 709 92 m 760 -123 q 804 -32 814 -80 q 788 0 800 -16 q 760 28 777 15 q 721 52 743 41 q 675 67 699 62 q 668 74 670 68 q 672 82 666 79 l 684 92 q 714 121 696 102 q 753 171 732 141 q 792 242 774 201 q 822 334 810 283 q 833 448 833 385 q 801 655 833 562 q 705 811 768 747 q 595 883 657 859 q 454 908 534 908 q 304 871 375 905 q 178 779 233 837 q 88 644 123 721 q 44 477 52 566 q 42 363 38 419 q 61 257 47 308 q 98 162 75 206 q 153 83 121 118 q 268 0 202 28 q 412 -28 333 -28 q 500 -16 456 -28 q 582 24 543 -3 q 587 26 584 26 q 592 23 590 25 q 594 18 594 21 q 592 12 595 15 l 564 -18 q 572 -73 564 -47 q 596 -118 581 -99 q 631 -147 611 -136 q 674 -157 651 -157 q 760 -123 718 -157 m 450 510 q 469 504 460 510 q 485 489 478 498 q 495 470 491 480 q 498 450 498 459 q 484 416 498 430 q 450 401 470 401 q 416 416 430 401 q 401 450 401 430 q 405 470 401 459 q 415 489 409 480 q 431 504 422 498 q 450 510 439 510 m 450 418 q 473 427 463 418 q 482 450 482 437 q 479 465 482 457 q 472 479 477 473 q 461 490 467 486 q 450 494 456 494 q 438 490 444 494 q 428 479 432 486 q 421 465 424 473 q 418 450 418 457 q 428 427 418 437 q 450 418 437 418 z "},"r":{"ha":861,"x_min":23,"x_max":846,"o":"m 838 149 q 832 70 846 106 q 785 6 818 33 q 725 -27 759 -16 q 654 -39 691 -39 q 588 -26 618 -39 q 529 9 555 -14 q 481 60 503 32 q 444 117 460 87 q 415 173 428 147 q 417 76 422 115 q 393 16 412 37 q 361 -9 381 3 q 317 -28 342 -20 q 264 -41 292 -37 q 209 -46 237 -46 q 164 -43 185 -46 q 128 -33 144 -40 q 84 5 104 -22 q 52 79 65 33 q 30 203 37 133 q 23 350 23 274 q 28 500 23 426 q 42 637 34 575 q 61 744 51 700 q 81 801 71 787 q 133 852 101 829 q 206 891 165 875 q 295 916 247 907 q 395 924 343 924 q 493 916 446 924 q 581 892 541 908 q 692 826 645 869 q 762 730 739 784 q 780 635 781 684 q 758 538 779 587 q 733 500 749 520 q 693 463 716 481 q 640 431 669 446 q 578 408 611 416 q 621 391 596 401 q 672 367 645 381 q 725 332 699 352 q 774 286 751 313 q 814 225 797 259 q 838 149 831 191 m 774 18 q 816 76 804 43 q 822 146 829 109 q 779 252 811 209 q 706 325 747 296 q 621 373 665 355 q 545 404 578 391 q 530 402 537 403 q 516 402 524 402 q 406 425 460 402 q 403 436 400 430 q 414 440 406 441 q 517 418 463 418 q 595 431 558 418 q 662 461 633 443 q 712 503 692 480 q 742 545 733 525 q 763 636 762 590 q 746 724 764 682 q 680 815 724 775 q 576 878 636 854 q 492 900 538 892 q 397 907 446 907 q 299 899 346 907 q 214 876 253 891 q 144 840 175 861 q 94 791 113 818 q 81 757 88 783 q 68 692 75 731 q 55 605 61 654 q 46 502 50 556 q 40 391 42 448 q 41 279 39 334 q 50 175 43 224 q 68 84 56 125 q 134 -18 92 -1 q 168 -26 149 -23 q 208 -30 186 -30 q 261 -26 235 -30 q 311 -14 288 -22 q 352 4 334 -6 q 381 27 370 15 q 399 65 394 42 q 404 114 404 89 q 400 162 404 139 q 394 201 397 186 q 392 217 393 213 q 392 223 392 221 q 398 230 393 230 q 404 229 402 230 q 407 226 406 227 q 413 214 410 220 q 420 201 416 208 q 451 139 434 171 q 489 77 468 106 q 536 25 510 48 q 594 -12 562 1 q 654 -22 622 -22 q 719 -12 688 -22 q 774 18 750 -1 m 418 650 q 386 640 401 649 q 360 615 371 631 q 355 611 358 611 q 349 613 352 611 q 346 618 347 615 q 347 624 345 621 q 378 654 359 644 q 418 666 397 665 q 490 628 461 666 q 490 622 491 625 q 486 616 489 618 q 481 614 484 614 q 476 618 478 614 q 418 650 452 650 z "},"s":{"ha":785,"x_min":24,"x_max":772,"o":"m 762 313 q 761 222 772 268 q 715 132 749 176 q 648 61 686 93 q 566 5 610 28 q 472 -31 522 -18 q 373 -44 423 -44 q 277 -33 327 -44 q 183 0 228 -22 q 102 55 138 22 q 47 130 66 87 q 26 224 27 177 q 42 315 24 271 q 85 385 58 353 q 149 438 113 416 q 127 462 138 448 q 107 494 117 476 q 92 533 98 512 q 84 578 86 555 q 84 624 82 599 q 95 677 85 648 q 122 736 104 705 q 172 799 141 767 q 233 849 199 827 q 303 887 267 871 q 378 911 340 903 q 455 920 417 920 q 541 910 496 920 q 626 881 585 901 q 697 830 666 861 q 745 754 729 798 q 757 687 756 721 q 752 622 758 652 q 735 567 746 591 q 711 528 724 542 q 617 492 677 492 q 551 502 583 492 q 497 522 519 511 q 482 531 490 526 q 467 543 474 536 q 456 555 460 549 q 454 568 452 562 q 453 598 458 585 q 441 619 448 612 q 428 628 435 624 q 413 629 420 631 q 401 621 407 627 q 391 605 395 614 q 410 554 385 579 q 428 543 416 549 q 455 532 439 537 q 487 520 470 526 q 522 509 505 515 q 603 480 564 497 q 675 438 642 463 q 730 384 707 414 q 762 313 753 353 m 702 142 q 744 225 733 183 q 746 309 755 268 q 715 377 737 347 q 662 428 693 406 q 594 466 631 450 q 518 494 557 481 q 480 506 498 500 q 446 517 461 511 q 418 530 430 524 q 399 543 406 536 q 375 582 377 564 q 376 609 373 600 q 390 633 380 625 q 410 645 400 642 q 432 643 421 648 q 452 631 443 639 q 470 601 465 618 q 471 566 475 583 q 477 556 471 564 q 505 537 483 549 q 560 516 530 524 q 616 509 589 509 q 699 540 671 509 q 719 571 709 550 q 736 621 730 593 q 742 683 742 650 q 729 749 741 715 q 685 818 715 789 q 618 866 656 847 q 538 895 581 886 q 455 904 496 904 q 381 896 418 904 q 309 872 345 888 q 242 836 274 857 q 183 787 210 814 q 137 728 154 758 q 111 673 119 699 q 100 623 102 646 q 100 581 98 600 q 110 533 102 555 q 127 493 117 511 q 150 461 138 475 q 174 439 162 447 q 210 417 190 427 l 248 398 q 295 374 273 387 q 340 343 318 361 q 356 318 352 330 q 360 297 360 307 q 356 282 359 288 q 351 273 353 275 q 338 262 346 267 q 322 255 331 258 q 305 254 314 253 q 289 259 296 254 q 279 268 285 262 q 271 286 273 274 q 270 316 268 298 q 282 362 272 334 q 262 373 273 368 q 241 383 252 378 q 224 392 235 386 q 201 405 214 398 q 178 418 189 412 q 163 427 168 425 q 100 378 128 408 q 57 311 73 349 q 41 229 41 273 q 63 136 41 184 q 115 65 81 96 q 191 14 149 35 q 281 -17 234 -6 q 373 -27 329 -27 q 465 -16 419 -27 q 554 18 511 -4 q 634 71 597 40 q 702 142 672 102 m 297 355 q 286 301 286 323 q 298 273 286 280 q 319 271 307 267 q 337 283 330 274 q 343 305 345 293 q 328 331 340 317 q 314 343 322 336 q 297 355 307 349 z "},"t":{"ha":876,"x_min":25,"x_max":856,"o":"m 853 675 q 854 631 856 654 q 846 583 852 607 q 826 535 839 558 q 793 492 814 511 q 647 438 741 441 q 679 351 669 405 q 685 227 689 296 q 666 133 682 179 q 623 50 650 86 q 561 -9 597 13 q 480 -32 524 -32 l 399 -32 q 320 -14 355 -32 q 258 37 284 3 q 216 118 232 71 q 196 227 200 166 q 201 351 191 296 q 234 438 212 405 q 87 492 140 441 q 54 535 66 511 q 34 583 41 558 q 26 631 28 607 q 28 675 25 654 q 40 736 32 706 q 66 794 49 767 q 112 846 83 822 q 182 887 140 869 q 285 915 225 905 q 425 924 345 924 l 456 924 q 596 915 536 924 q 699 887 656 905 q 769 846 741 869 q 814 794 797 822 q 840 736 831 767 q 853 675 849 706 m 668 228 q 662 354 672 300 q 627 438 651 409 q 594 440 611 439 q 560 446 578 442 q 553 454 553 446 q 556 460 554 457 q 564 461 559 463 q 602 455 583 457 q 637 454 620 454 q 782 503 729 454 q 813 543 801 522 q 831 588 825 565 q 838 632 837 610 q 837 672 839 654 q 825 730 833 701 q 800 785 817 759 q 756 834 783 811 q 689 873 730 857 q 590 899 648 889 q 456 908 533 908 l 425 908 q 291 899 348 908 q 192 873 233 889 q 124 834 151 857 q 81 785 98 811 q 56 730 64 759 q 44 672 47 701 q 43 632 42 654 q 50 588 44 610 q 67 543 56 565 q 98 503 79 522 q 243 454 152 454 q 279 455 261 454 q 317 461 298 457 q 328 454 326 462 q 319 446 328 446 q 286 440 303 442 q 254 438 269 439 q 219 354 229 409 q 213 228 208 300 q 218 184 214 210 q 229 132 221 159 q 250 79 237 105 q 283 31 263 52 q 332 -3 303 10 q 399 -16 361 -16 l 480 -16 q 554 6 521 -16 q 612 61 587 27 q 651 139 636 96 q 668 228 665 183 z "},"u":{"ha":857,"x_min":26,"x_max":837,"o":"m 739 882 q 786 812 766 854 q 818 716 806 769 q 833 602 830 663 q 830 474 837 541 q 804 340 823 408 q 755 205 786 271 q 693 102 729 147 q 616 27 658 58 q 526 -20 574 -4 q 425 -37 477 -37 q 243 6 319 -37 q 114 138 167 50 q 66 249 85 187 q 36 379 46 311 q 27 517 26 447 q 40 652 28 587 q 77 774 52 718 q 138 870 101 830 q 191 910 162 897 q 249 924 219 924 q 339 886 300 924 q 396 779 378 847 q 406 713 404 751 q 410 634 409 675 q 412 590 411 614 q 416 544 414 566 q 422 507 418 522 q 431 492 426 492 q 435 503 433 494 q 438 525 437 512 q 440 551 439 537 q 441 576 441 564 q 445 638 443 605 q 453 705 448 671 q 467 772 458 739 q 491 832 476 804 q 553 904 515 878 q 635 930 591 930 q 690 918 664 930 q 739 882 717 906 m 741 212 q 788 344 770 277 q 813 475 806 410 q 818 599 821 539 q 804 710 815 659 q 773 803 792 762 q 728 871 753 844 q 635 913 686 913 q 563 890 597 913 q 505 824 528 866 q 483 767 491 798 q 469 702 474 735 q 461 636 464 669 q 458 575 459 604 q 451 500 455 525 q 432 475 448 475 q 414 486 420 475 q 404 518 408 497 q 397 568 399 538 q 394 633 395 597 q 390 711 392 673 q 381 774 387 749 q 329 872 363 837 q 249 907 295 907 q 150 859 196 907 q 90 766 114 821 q 55 647 66 711 q 43 515 43 584 q 53 381 43 447 q 82 254 62 315 q 129 146 101 194 q 251 21 178 62 q 425 -20 324 -20 q 521 -5 475 -20 q 607 41 567 11 q 681 114 648 71 q 741 212 715 157 z "},"v":{"ha":949,"x_min":19,"x_max":930,"o":"m 889 861 q 924 760 919 819 q 909 638 930 701 q 867 530 892 587 q 809 416 841 473 q 740 302 777 358 q 665 195 703 245 q 587 100 626 144 q 511 25 548 57 q 440 -24 474 -6 q 380 -42 407 -42 q 332 -23 357 -42 q 282 28 307 -4 q 231 101 256 60 q 183 188 206 143 q 139 278 159 233 q 102 363 119 323 q 74 433 85 402 q 58 478 62 463 q 23 686 19 593 q 71 842 26 779 q 137 899 98 879 q 220 920 176 920 q 264 915 243 920 q 306 899 286 910 q 438 500 446 829 q 456 575 446 535 q 480 655 467 614 q 510 735 493 696 q 547 807 527 774 q 592 864 568 840 q 644 900 616 888 q 755 925 704 925 q 832 909 798 925 q 889 861 867 892 m 894 643 q 908 757 913 703 q 876 850 903 812 q 824 893 855 879 q 755 907 793 907 q 704 902 730 907 q 650 885 678 897 q 595 845 620 873 q 550 779 570 817 q 512 698 529 742 q 483 610 496 654 q 461 524 470 566 q 446 451 452 483 q 437 400 439 419 q 434 380 434 380 q 426 371 434 373 q 417 376 420 371 q 417 395 417 386 q 418 418 418 405 q 421 489 420 448 q 421 575 423 530 q 414 669 420 621 q 394 758 408 716 q 357 833 380 800 q 298 884 334 866 q 261 899 281 895 q 220 904 241 904 q 145 885 180 904 q 84 832 110 867 q 39 684 43 774 q 73 483 36 594 q 92 430 80 463 q 121 358 104 397 q 158 274 138 318 q 201 188 178 231 q 247 107 223 146 q 293 38 270 68 q 338 -8 316 9 q 380 -26 360 -26 q 434 -9 404 -26 q 500 38 465 8 q 573 110 535 68 q 649 201 611 151 q 723 305 686 250 q 791 417 760 360 q 850 531 823 474 q 894 643 876 589 z "},"w":{"ha":1074,"x_min":22,"x_max":1058,"o":"m 996 858 q 1020 827 1008 845 q 1040 783 1031 808 q 1054 725 1049 758 q 1055 651 1058 692 q 1049 588 1053 629 q 1036 494 1044 547 q 1015 380 1027 441 q 984 260 1002 320 q 942 145 966 201 q 886 48 918 90 q 815 -19 854 6 q 728 -44 776 -44 q 666 -34 693 -44 q 618 -7 640 -24 q 582 30 597 9 q 556 71 567 50 q 539 111 546 92 q 528 142 532 130 q 519 107 526 127 q 500 67 512 87 q 472 26 489 46 q 433 -10 455 5 q 382 -36 410 -26 q 319 -45 353 -45 q 255 -37 290 -45 q 192 -1 220 -28 q 143 67 165 26 q 106 159 122 108 q 78 266 90 210 q 57 380 66 322 q 40 493 48 438 q 36 518 39 506 q 32 541 34 530 q 25 656 22 606 q 37 744 27 706 q 61 809 46 782 q 91 854 76 836 q 157 905 121 887 q 236 922 194 922 q 302 911 269 922 q 358 870 335 899 q 395 805 380 842 q 418 725 410 768 q 432 640 427 682 q 442 673 435 656 q 459 704 449 690 q 485 727 470 718 q 519 736 500 736 q 558 725 543 736 q 584 694 574 713 q 598 654 593 676 q 604 613 603 633 q 622 684 612 648 q 646 753 631 719 q 680 818 660 787 q 728 878 700 850 q 780 911 749 900 q 846 923 811 923 q 928 906 889 923 q 996 858 967 889 m 1038 653 q 1030 763 1044 713 q 983 847 1016 812 q 921 891 956 876 q 846 907 886 907 q 786 897 814 907 q 740 867 759 886 q 687 798 708 835 q 652 721 666 762 q 628 637 637 680 q 609 548 618 593 q 605 529 606 536 q 602 515 603 522 q 598 509 601 511 q 593 508 595 507 q 588 511 590 509 q 585 518 585 514 q 590 558 588 533 q 589 609 591 583 q 580 661 587 636 q 560 702 573 686 q 519 720 544 720 q 475 700 494 720 q 454 661 462 684 q 444 611 447 637 q 441 563 441 586 q 445 525 442 540 q 443 519 445 522 q 438 516 441 517 q 432 516 435 515 q 429 522 429 517 q 425 544 427 530 q 422 576 424 558 l 422 576 q 416 632 420 602 q 407 695 413 663 q 393 760 401 728 q 371 819 384 791 q 339 866 357 846 q 296 895 321 886 q 236 907 265 907 q 164 890 197 907 q 104 844 130 874 q 76 801 90 827 q 53 739 62 775 q 41 654 43 703 q 48 545 39 606 q 52 520 50 532 q 56 496 54 509 q 73 390 64 446 q 93 279 81 334 q 120 174 104 224 q 155 82 135 123 q 201 14 175 42 q 260 -22 227 -14 q 290 -27 275 -25 q 319 -29 304 -29 q 377 -20 351 -29 q 425 4 404 -11 q 461 39 446 20 q 488 77 477 58 q 504 115 498 96 q 512 147 510 134 q 516 170 513 161 q 526 178 518 178 q 534 172 532 178 q 543 150 537 165 q 553 119 547 137 q 570 80 560 100 q 594 41 580 60 q 627 6 608 22 q 671 -18 646 -9 q 728 -28 696 -28 q 810 -3 773 -28 q 876 62 846 21 q 929 158 906 104 q 970 270 952 212 q 1000 388 987 328 q 1020 499 1012 447 q 1032 591 1027 551 q 1038 653 1036 631 z "},"x":{"ha":920,"x_min":20,"x_max":904,"o":"m 857 897 q 899 805 894 859 q 879 688 904 752 q 801 553 854 625 q 666 404 747 481 q 711 346 688 378 q 756 278 735 313 q 794 205 778 242 q 816 132 810 168 q 816 64 823 96 q 786 5 810 31 q 738 -29 766 -17 q 677 -41 709 -41 q 631 -35 658 -41 q 572 -6 604 -28 q 508 55 541 15 q 443 159 474 94 q 414 122 433 142 q 370 80 395 101 q 317 39 346 59 q 259 3 289 19 q 199 -22 229 -12 q 142 -31 170 -31 q 70 -11 96 -28 q 33 39 44 7 q 31 128 20 77 q 66 233 41 179 q 129 338 92 287 q 208 428 166 389 q 126 528 159 475 q 77 632 94 581 q 58 729 60 684 q 71 809 57 775 q 92 848 79 829 q 125 883 106 867 q 167 908 144 899 q 216 918 190 918 q 263 910 237 918 q 320 878 290 901 q 383 814 350 855 q 451 709 416 774 q 519 795 479 755 q 601 867 558 836 q 688 915 644 897 q 770 932 732 932 q 857 897 824 932 m 774 16 q 800 70 795 39 q 799 134 806 100 q 777 203 793 168 q 741 272 762 238 q 698 336 721 306 q 654 392 675 367 q 636 376 646 385 q 615 359 625 367 q 594 343 604 351 q 578 332 585 336 q 571 332 574 331 q 567 335 568 333 q 565 340 565 337 q 569 346 566 343 q 588 360 575 349 q 614 381 601 370 q 638 402 628 393 q 650 411 649 411 q 796 574 744 499 q 868 708 848 648 q 880 813 888 768 q 846 886 872 857 q 770 916 818 916 q 689 898 732 916 q 603 848 646 880 q 522 776 560 817 q 457 688 484 734 q 450 684 456 686 q 443 688 446 684 q 377 797 409 755 q 316 862 345 838 q 261 893 287 885 q 216 902 236 902 q 172 893 193 902 q 135 870 151 884 q 105 838 118 856 q 85 802 93 821 q 74 727 73 770 q 93 634 76 683 q 141 534 109 585 q 221 438 173 484 q 254 465 236 451 q 284 486 272 478 q 290 487 288 487 q 295 484 292 488 q 293 472 300 479 q 272 458 284 467 q 249 440 260 450 q 227 422 237 431 q 211 406 216 413 q 161 352 185 382 q 116 289 136 321 q 79 222 95 256 q 54 156 63 189 q 43 95 45 124 q 49 43 41 66 q 80 2 58 16 q 144 -15 102 -12 q 202 -4 171 -15 q 263 24 233 7 q 322 62 294 41 q 374 106 351 84 q 414 147 397 127 q 436 180 430 167 q 443 186 438 186 q 451 181 448 186 q 514 74 481 114 q 576 11 546 33 q 632 -18 606 -11 q 677 -25 659 -25 q 731 -14 706 -25 q 774 16 756 -3 z "},"y":{"ha":871,"x_min":20,"x_max":850,"o":"m 652 932 q 724 919 688 932 q 787 875 759 905 q 833 796 815 845 q 850 675 850 747 q 844 570 850 625 q 819 465 838 516 q 761 370 799 414 q 660 295 723 326 q 640 277 646 289 q 630 249 633 265 q 627 213 627 233 q 627 172 627 193 q 628 127 628 150 q 624 81 628 104 q 612 39 621 59 q 588 1 604 18 q 438 -45 543 -45 q 338 -27 374 -45 q 284 18 302 -10 q 261 80 266 45 q 254 148 256 114 q 251 189 252 169 q 244 226 249 209 q 231 257 239 243 q 207 280 222 271 q 66 418 111 336 q 26 603 20 500 l 26 604 q 35 704 30 656 q 54 793 40 752 q 94 866 68 835 q 164 916 119 898 q 195 925 178 922 q 232 927 212 927 q 298 919 265 927 q 359 892 332 910 q 406 847 387 874 q 429 783 425 820 q 430 740 431 767 q 426 680 429 713 q 423 627 425 656 q 421 573 421 599 q 422 528 420 547 q 431 502 425 508 l 431 501 q 438 517 435 503 q 445 551 441 531 q 450 592 448 570 q 454 630 452 614 q 467 734 460 681 q 488 834 474 788 q 509 873 493 855 q 547 904 524 891 q 596 925 569 918 q 652 932 623 932 m 654 310 q 749 381 713 339 q 803 473 785 424 q 828 574 822 522 q 833 675 833 627 q 823 770 833 731 q 796 837 812 810 q 759 879 779 863 q 719 903 739 895 q 681 913 699 911 q 652 916 663 916 q 601 909 626 916 q 556 890 576 902 q 522 863 536 879 q 503 830 507 848 q 483 732 490 785 q 471 629 477 679 q 463 563 467 590 q 455 518 459 535 q 445 493 451 500 q 431 485 439 485 q 418 492 425 485 q 405 556 404 507 q 410 681 405 606 q 413 739 411 712 q 412 781 414 766 q 392 839 409 814 q 350 880 375 864 q 293 904 324 896 q 232 911 262 911 q 170 900 197 911 q 104 854 128 884 q 68 787 81 825 q 51 702 56 748 q 43 604 47 655 l 43 602 q 81 427 37 505 q 214 294 124 349 q 243 268 233 283 q 259 234 254 252 q 267 193 264 215 q 270 149 269 172 q 276 84 272 116 q 297 27 281 52 q 346 -13 313 3 q 438 -28 379 -28 q 522 -18 488 -28 q 576 14 556 -8 q 598 47 591 28 q 609 85 606 65 q 611 128 612 106 q 610 172 611 150 q 610 215 610 194 q 614 255 610 237 q 627 288 618 273 q 654 310 636 302 z "},"z":{"ha":886,"x_min":23,"x_max":867,"o":"m 842 298 q 861 243 855 272 q 865 184 867 214 q 856 126 864 155 q 832 75 847 98 q 781 27 814 47 q 709 -7 749 7 q 625 -28 669 -20 q 540 -40 581 -36 q 465 -45 499 -44 q 411 -46 431 -46 q 327 -43 368 -46 q 252 -36 286 -41 q 191 -25 217 -32 q 150 -10 164 -18 q 97 25 123 4 q 53 76 71 46 q 29 145 35 106 q 36 234 23 184 q 75 304 45 273 q 144 360 105 335 q 226 403 183 385 q 304 436 269 422 q 263 433 284 433 q 223 432 243 432 q 160 435 187 432 q 124 442 132 437 q 53 522 79 469 q 25 645 26 575 q 31 714 24 680 q 49 777 37 748 q 78 827 61 805 q 117 863 96 850 q 172 889 139 878 q 246 909 205 901 q 333 922 286 918 q 429 926 379 926 q 525 922 475 926 q 621 907 574 917 q 708 880 668 897 q 772 840 747 864 q 825 768 808 807 q 844 689 842 729 q 835 610 846 649 q 805 539 824 572 q 751 478 785 508 q 665 417 717 448 q 773 378 727 410 q 842 298 819 347 m 819 83 q 840 132 833 106 q 849 185 848 158 q 845 239 850 212 q 828 291 840 267 q 758 368 804 339 q 650 403 712 397 q 609 387 630 396 q 567 368 588 378 q 525 347 545 357 q 485 329 504 337 q 424 302 452 315 q 376 277 395 289 q 370 276 373 275 q 365 279 367 277 q 363 286 363 282 q 367 291 363 289 q 416 316 388 303 q 478 345 445 330 q 568 386 522 364 q 658 433 615 408 q 735 487 701 458 q 790 548 770 515 q 818 614 808 578 q 826 687 828 650 q 809 761 825 724 q 761 828 793 797 q 708 862 741 847 q 632 887 675 877 q 538 903 589 897 q 429 908 486 908 q 335 904 380 908 q 250 892 290 900 q 179 874 211 885 q 125 850 146 863 q 90 817 105 838 q 64 769 75 796 q 47 711 53 743 q 42 646 42 679 q 66 530 43 581 q 132 456 90 479 q 162 450 138 452 q 222 448 186 448 q 254 448 235 448 q 294 451 272 449 q 340 457 316 453 q 387 467 363 460 q 484 525 463 488 q 489 528 486 528 q 495 528 492 529 q 499 524 498 526 q 498 517 500 521 q 391 451 474 473 q 357 439 374 446 q 318 423 340 433 q 269 404 296 414 q 214 379 241 393 q 160 350 186 366 q 112 316 134 334 q 74 276 90 298 q 52 231 58 255 q 46 148 40 184 q 68 84 52 112 q 109 37 85 56 q 158 3 133 17 q 198 -11 172 -4 q 258 -21 224 -17 q 332 -28 292 -26 q 415 -31 372 -31 q 467 -30 435 -31 q 539 -25 500 -29 q 621 -14 578 -21 q 701 6 663 -6 q 770 38 739 19 q 819 83 802 57 z "},"A":{"ha":814,"x_min":19,"x_max":798,"o":"m 788 562 q 794 492 791 535 q 798 399 798 450 q 793 293 798 349 q 779 186 789 238 q 749 87 768 134 q 701 8 730 41 q 578 -49 652 -49 q 469 13 513 -49 q 401 197 425 75 q 386 113 397 155 q 352 36 376 71 q 290 -21 329 2 q 190 -46 251 -43 q 90 -5 125 -46 q 34 139 48 41 q 33 377 19 237 q 52 505 39 439 q 84 631 64 570 q 135 746 104 692 q 207 840 165 800 q 303 904 248 880 q 428 927 358 927 q 548 909 496 927 q 638 863 600 892 q 703 796 676 833 q 747 718 730 758 q 774 636 764 677 q 788 562 783 596 m 690 20 q 735 96 717 52 q 763 192 753 141 q 778 297 774 243 q 781 400 781 351 q 778 491 781 450 q 772 560 775 533 q 756 642 766 600 q 728 723 745 684 q 684 796 710 762 q 622 856 658 830 q 537 896 585 881 q 428 911 489 911 q 309 888 361 911 q 216 826 256 865 q 148 734 176 787 q 99 623 119 682 q 67 499 79 563 q 50 375 56 436 q 49 144 35 239 q 102 6 62 50 q 138 -20 117 -12 q 190 -29 159 -29 q 275 -11 239 -27 q 335 40 311 6 q 372 125 359 73 q 387 248 385 176 q 389 264 388 259 q 397 269 390 269 q 405 265 403 269 q 409 244 406 261 q 473 37 431 106 q 578 -33 515 -33 q 690 20 643 -33 m 410 598 q 445 588 429 598 q 473 559 461 578 q 475 553 475 556 q 471 548 474 550 q 465 546 469 546 q 459 550 462 547 q 412 582 439 582 q 381 572 394 581 q 358 547 368 562 q 353 543 356 543 q 347 544 350 542 q 343 548 345 545 q 344 555 342 551 q 373 586 355 574 q 410 598 390 597 z "}}}
